<svg xmlns="http://www.w3.org/2000/svg" width="1200" height="1500" viewBox="0 0 1200 1500" role="img" aria-label="自得逍遥客">
  <defs>
    <linearGradient id="bg" x1="0" y1="0" x2="1" y2="1">
      <stop offset="0%" stop-color="#09101B"/>
      <stop offset="45%" stop-color="#111B2B"/>
      <stop offset="100%" stop-color="#090D14"/>
    </linearGradient>
    <radialGradient id="halo1" cx="26%" cy="22%" r="56%">
      <stop offset="0%" stop-color="#53E5D6" stop-opacity="0.46"/>
      <stop offset="100%" stop-color="#53E5D6" stop-opacity="0"/>
    </radialGradient>
    <radialGradient id="halo2" cx="76%" cy="74%" r="50%">
      <stop offset="0%" stop-color="#94B6FF" stop-opacity="0.32"/>
      <stop offset="100%" stop-color="#94B6FF" stop-opacity="0"/>
    </radialGradient>
    <linearGradient id="accent" x1="0" y1="0" x2="1" y2="1">
      <stop offset="0%" stop-color="#53E5D6"/>
      <stop offset="55%" stop-color="#94B6FF"/>
      <stop offset="100%" stop-color="#FFF0D3"/>
    </linearGradient>
    <linearGradient id="shine" x1="0" y1="0" x2="1" y2="0">
      <stop offset="0%" stop-color="rgba(255,255,255,0)"/>
      <stop offset="50%" stop-color="rgba(255,255,255,0.16)"/>
      <stop offset="100%" stop-color="rgba(255,255,255,0)"/>
    </linearGradient>
    <filter id="blur30" x="-30%" y="-30%" width="160%" height="160%"><feGaussianBlur stdDeviation="30"/></filter>
    <filter id="blur18" x="-30%" y="-30%" width="160%" height="160%"><feGaussianBlur stdDeviation="18"/></filter>
  </defs>
  <rect width="1200" height="1500" rx="56" fill="url(#bg)"/>
  <rect x="28" y="28" width="1144" height="1444" rx="40" fill="none" stroke="rgba(255,255,255,0.12)"/>
  <rect x="54" y="54" width="1092" height="1392" rx="28" fill="none" stroke="rgba(255,255,255,0.06)"/>
  <circle cx="300" cy="260" r="340" fill="url(#halo1)" filter="url(#blur30)"/>
  <circle cx="890" cy="1080" r="320" fill="url(#halo2)" filter="url(#blur30)"/>
  <g><path d="M 80 180 C 260 140, 370 220, 560 180 S 880 140, 1120 200.0" fill="none" stroke="rgba(255,255,255,0.08)" stroke-width="1.4"/>
<path d="M 80 300 C 260 248, 370 352, 560 300 S 880 248, 1120 326.0" fill="none" stroke="rgba(255,255,255,0.08)" stroke-width="1.4"/>
<path d="M 80 430 C 260 366, 370 494, 560 430 S 880 366, 1120 462.0" fill="none" stroke="rgba(255,255,255,0.08)" stroke-width="1.4"/>
<path d="M 80 560 C 260 520, 370 600, 560 560 S 880 520, 1120 580.0" fill="none" stroke="rgba(255,255,255,0.08)" stroke-width="1.4"/>
<path d="M 80 700 C 260 648, 370 752, 560 700 S 880 648, 1120 726.0" fill="none" stroke="rgba(255,255,255,0.08)" stroke-width="1.4"/>
<path d="M 80 860 C 260 796, 370 924, 560 860 S 880 796, 1120 892.0" fill="none" stroke="rgba(255,255,255,0.08)" stroke-width="1.4"/>
<path d="M 80 1030 C 260 990, 370 1070, 560 1030 S 880 990, 1120 1050.0" fill="none" stroke="rgba(255,255,255,0.08)" stroke-width="1.4"/>
<path d="M 80 1180 C 260 1128, 370 1232, 560 1180 S 880 1128, 1120 1206.0" fill="none" stroke="rgba(255,255,255,0.08)" stroke-width="1.4"/>
<path d="M 160 120 C 210 360, 110 860, 180 1380" fill="none" stroke="rgba(255,255,255,0.035)" stroke-width="1"/>
<path d="M 320 120 C 370 360, 270 860, 340 1380" fill="none" stroke="rgba(255,255,255,0.035)" stroke-width="1"/>
<path d="M 480 120 C 530 360, 430 860, 500 1380" fill="none" stroke="rgba(255,255,255,0.035)" stroke-width="1"/>
<path d="M 640 120 C 690 360, 590 860, 660 1380" fill="none" stroke="rgba(255,255,255,0.035)" stroke-width="1"/>
<path d="M 800 120 C 850 360, 750 860, 820 1380" fill="none" stroke="rgba(255,255,255,0.035)" stroke-width="1"/>
<path d="M 960 120 C 1010 360, 910 860, 980 1380" fill="none" stroke="rgba(255,255,255,0.035)" stroke-width="1"/></g>
  <g opacity="0.06"><text x="72" y="520" font-size="240" font-weight="800" fill="white" font-family="Inter, Arial, sans-serif" letter-spacing="18">IASC</text></g>
  <g><circle cx="656" cy="1099" r="4" fill="white" fill-opacity="0.34"/>
<circle cx="139" cy="1026" r="5" fill="white" fill-opacity="0.55"/>
<circle cx="453" cy="1067" r="2.5" fill="#FFF0D3" fill-opacity="0.34"/>
<circle cx="323" cy="831" r="3" fill="#FFF0D3" fill-opacity="0.20"/>
<circle cx="437" cy="1075" r="4" fill="white" fill-opacity="0.54"/>
<circle cx="386" cy="505" r="5" fill="#53E5D6" fill-opacity="0.23"/>
<circle cx="675" cy="185" r="2" fill="#94B6FF" fill-opacity="0.20"/>
<circle cx="1033" cy="178" r="2" fill="#FFF0D3" fill-opacity="0.53"/>
<circle cx="1004" cy="1341" r="5" fill="white" fill-opacity="0.44"/>
<circle cx="817" cy="1095" r="3" fill="white" fill-opacity="0.45"/>
<circle cx="738" cy="341" r="2.5" fill="#94B6FF" fill-opacity="0.52"/>
<circle cx="928" cy="845" r="2" fill="#FFF0D3" fill-opacity="0.31"/>
<circle cx="1059" cy="1375" r="2" fill="#53E5D6" fill-opacity="0.45"/>
<circle cx="851" cy="1051" r="4" fill="#53E5D6" fill-opacity="0.25"/>
<circle cx="213" cy="637" r="4" fill="#53E5D6" fill-opacity="0.55"/>
<circle cx="1019" cy="370" r="2.5" fill="#53E5D6" fill-opacity="0.30"/>
<circle cx="781" cy="756" r="4" fill="white" fill-opacity="0.31"/>
<circle cx="224" cy="509" r="5" fill="#94B6FF" fill-opacity="0.20"/>
<circle cx="710" cy="1041" r="3" fill="white" fill-opacity="0.39"/>
<circle cx="337" cy="1347" r="2" fill="#FFF0D3" fill-opacity="0.29"/>
<circle cx="1089" cy="508" r="5" fill="#53E5D6" fill-opacity="0.25"/>
<circle cx="893" cy="1280" r="3" fill="#FFF0D3" fill-opacity="0.30"/>
<circle cx="502" cy="695" r="2" fill="white" fill-opacity="0.43"/>
<circle cx="1120" cy="1061" r="2" fill="#53E5D6" fill-opacity="0.15"/>
<circle cx="726" cy="232" r="2.5" fill="white" fill-opacity="0.35"/>
<circle cx="178" cy="618" r="5" fill="#94B6FF" fill-opacity="0.21"/>
<circle cx="1056" cy="1116" r="5" fill="#94B6FF" fill-opacity="0.24"/>
<circle cx="440" cy="1322" r="2" fill="white" fill-opacity="0.40"/>
<circle cx="500" cy="242" r="2" fill="#53E5D6" fill-opacity="0.34"/>
<circle cx="992" cy="199" r="3" fill="#FFF0D3" fill-opacity="0.19"/>
<circle cx="640" cy="473" r="3" fill="#94B6FF" fill-opacity="0.39"/>
<circle cx="990" cy="1018" r="4" fill="white" fill-opacity="0.19"/>
<circle cx="126" cy="1059" r="4" fill="#53E5D6" fill-opacity="0.42"/>
<circle cx="659" cy="179" r="2" fill="#FFF0D3" fill-opacity="0.49"/></g>
  <g opacity="0.85">
      <g>
        <rect x="372" y="420" width="464" height="560" rx="42" fill="rgba(255,255,255,0.03)" stroke="url(#accent)" stroke-width="18"/>
        <path d="M604 420 V980" stroke="rgba(255,255,255,0.16)" stroke-width="5"/>
        <path d="M372 700 H836" stroke="rgba(255,255,255,0.16)" stroke-width="5"/>
        <path d="M470 1132 C 522 1026, 582 986, 604 922 C 626 986, 686 1026, 738 1132" fill="none" stroke="#FFF0D3" stroke-width="15"/>
        <circle cx="470" cy="1130" r="18" fill="#FFF0D3"/><circle cx="738" cy="1130" r="18" fill="#FFF0D3"/>
        <rect x="460" y="1072" width="284" height="16" rx="8" fill="rgba(255,255,255,0.14)"/>
        <circle cx="604" cy="700" r="22" fill="url(#accent)"/>
      </g></g>
  <g opacity="0.9">
    <rect x="84" y="92" width="220" height="34" rx="17" fill="rgba(255,255,255,0.05)" stroke="rgba(255,255,255,0.08)"/>
    <circle cx="114" cy="109" r="5" fill="#53E5D6"/>
    <circle cx="136" cy="109" r="5" fill="#94B6FF"/>
    <circle cx="158" cy="109" r="5" fill="#FFF0D3"/>
    <text x="186" y="116" font-size="18" fill="rgba(255,255,255,0.72)" font-family="Inter, Arial, sans-serif" letter-spacing="1.2">Y-MAP PROFILE POSTER</text>
  </g>
  <g>
    <rect x="86" y="1284" width="1028" height="116" rx="26" fill="rgba(8,12,18,0.62)" stroke="rgba(255,255,255,0.08)"/>
    <path d="M118 1320 H1080" stroke="url(#accent)" stroke-width="2" stroke-opacity="0.7"/>
    <text x="122" y="1362" font-size="46" font-weight="800" fill="white" font-family="Inter, PingFang SC, Microsoft YaHei, Arial, sans-serif">自得逍遥客</text>
    <text x="122" y="1394" font-size="20" letter-spacing="8" fill="rgba(255,255,255,0.55)" font-family="Inter, Arial, sans-serif">IASC · YOUTH MISSION &amp; ATTITUDE PROFILE</text>
  </g>
  <path d="M 40 280 L 320 -20" stroke="rgba(255,255,255,0.06)" stroke-width="50"/>
</svg>