<svg xmlns="http://www.w3.org/2000/svg" width="1200" height="1500" viewBox="0 0 1200 1500" role="img" aria-label="清醒体验家">
  <defs>
    <linearGradient id="bg" x1="0" y1="0" x2="1" y2="1">
      <stop offset="0%" stop-color="#09101B"/>
      <stop offset="45%" stop-color="#111B2B"/>
      <stop offset="100%" stop-color="#090D14"/>
    </linearGradient>
    <radialGradient id="halo1" cx="26%" cy="22%" r="56%">
      <stop offset="0%" stop-color="#65D8FF" stop-opacity="0.46"/>
      <stop offset="100%" stop-color="#65D8FF" stop-opacity="0"/>
    </radialGradient>
    <radialGradient id="halo2" cx="76%" cy="74%" r="50%">
      <stop offset="0%" stop-color="#A0FFA8" stop-opacity="0.32"/>
      <stop offset="100%" stop-color="#A0FFA8" stop-opacity="0"/>
    </radialGradient>
    <linearGradient id="accent" x1="0" y1="0" x2="1" y2="1">
      <stop offset="0%" stop-color="#65D8FF"/>
      <stop offset="55%" stop-color="#A0FFA8"/>
      <stop offset="100%" stop-color="#FFF3B2"/>
    </linearGradient>
    <linearGradient id="shine" x1="0" y1="0" x2="1" y2="0">
      <stop offset="0%" stop-color="rgba(255,255,255,0)"/>
      <stop offset="50%" stop-color="rgba(255,255,255,0.16)"/>
      <stop offset="100%" stop-color="rgba(255,255,255,0)"/>
    </linearGradient>
    <filter id="blur30" x="-30%" y="-30%" width="160%" height="160%"><feGaussianBlur stdDeviation="30"/></filter>
    <filter id="blur18" x="-30%" y="-30%" width="160%" height="160%"><feGaussianBlur stdDeviation="18"/></filter>
  </defs>
  <rect width="1200" height="1500" rx="56" fill="url(#bg)"/>
  <rect x="28" y="28" width="1144" height="1444" rx="40" fill="none" stroke="rgba(255,255,255,0.12)"/>
  <rect x="54" y="54" width="1092" height="1392" rx="28" fill="none" stroke="rgba(255,255,255,0.06)"/>
  <circle cx="300" cy="260" r="340" fill="url(#halo1)" filter="url(#blur30)"/>
  <circle cx="890" cy="1080" r="320" fill="url(#halo2)" filter="url(#blur30)"/>
  <g><path d="M 80 180 C 260 140, 370 220, 560 180 S 880 140, 1120 200.0" fill="none" stroke="rgba(255,255,255,0.08)" stroke-width="1.4"/>
<path d="M 80 300 C 260 248, 370 352, 560 300 S 880 248, 1120 326.0" fill="none" stroke="rgba(255,255,255,0.08)" stroke-width="1.4"/>
<path d="M 80 430 C 260 366, 370 494, 560 430 S 880 366, 1120 462.0" fill="none" stroke="rgba(255,255,255,0.08)" stroke-width="1.4"/>
<path d="M 80 560 C 260 520, 370 600, 560 560 S 880 520, 1120 580.0" fill="none" stroke="rgba(255,255,255,0.08)" stroke-width="1.4"/>
<path d="M 80 700 C 260 648, 370 752, 560 700 S 880 648, 1120 726.0" fill="none" stroke="rgba(255,255,255,0.08)" stroke-width="1.4"/>
<path d="M 80 860 C 260 796, 370 924, 560 860 S 880 796, 1120 892.0" fill="none" stroke="rgba(255,255,255,0.08)" stroke-width="1.4"/>
<path d="M 80 1030 C 260 990, 370 1070, 560 1030 S 880 990, 1120 1050.0" fill="none" stroke="rgba(255,255,255,0.08)" stroke-width="1.4"/>
<path d="M 80 1180 C 260 1128, 370 1232, 560 1180 S 880 1128, 1120 1206.0" fill="none" stroke="rgba(255,255,255,0.08)" stroke-width="1.4"/>
<path d="M 160 120 C 210 360, 110 860, 180 1380" fill="none" stroke="rgba(255,255,255,0.035)" stroke-width="1"/>
<path d="M 320 120 C 370 360, 270 860, 340 1380" fill="none" stroke="rgba(255,255,255,0.035)" stroke-width="1"/>
<path d="M 480 120 C 530 360, 430 860, 500 1380" fill="none" stroke="rgba(255,255,255,0.035)" stroke-width="1"/>
<path d="M 640 120 C 690 360, 590 860, 660 1380" fill="none" stroke="rgba(255,255,255,0.035)" stroke-width="1"/>
<path d="M 800 120 C 850 360, 750 860, 820 1380" fill="none" stroke="rgba(255,255,255,0.035)" stroke-width="1"/>
<path d="M 960 120 C 1010 360, 910 860, 980 1380" fill="none" stroke="rgba(255,255,255,0.035)" stroke-width="1"/></g>
  <g opacity="0.06"><text x="72" y="520" font-size="240" font-weight="800" fill="white" font-family="Inter, Arial, sans-serif" letter-spacing="18">IASP</text></g>
  <g><circle cx="896" cy="1372" r="4" fill="#A0FFA8" fill-opacity="0.37"/>
<circle cx="601" cy="333" r="2.5" fill="#A0FFA8" fill-opacity="0.36"/>
<circle cx="275" cy="1003" r="5" fill="#FFF3B2" fill-opacity="0.43"/>
<circle cx="150" cy="1387" r="2.5" fill="#FFF3B2" fill-opacity="0.27"/>
<circle cx="1044" cy="539" r="5" fill="white" fill-opacity="0.45"/>
<circle cx="112" cy="125" r="2" fill="#FFF3B2" fill-opacity="0.48"/>
<circle cx="478" cy="790" r="2.5" fill="#65D8FF" fill-opacity="0.46"/>
<circle cx="728" cy="166" r="2" fill="white" fill-opacity="0.29"/>
<circle cx="258" cy="160" r="4" fill="white" fill-opacity="0.44"/>
<circle cx="298" cy="97" r="2" fill="white" fill-opacity="0.26"/>
<circle cx="254" cy="1254" r="3" fill="#FFF3B2" fill-opacity="0.38"/>
<circle cx="938" cy="724" r="2.5" fill="#A0FFA8" fill-opacity="0.51"/>
<circle cx="889" cy="866" r="2.5" fill="#65D8FF" fill-opacity="0.18"/>
<circle cx="315" cy="1316" r="2.5" fill="#FFF3B2" fill-opacity="0.17"/>
<circle cx="623" cy="1360" r="3" fill="white" fill-opacity="0.16"/>
<circle cx="762" cy="917" r="2.5" fill="#A0FFA8" fill-opacity="0.28"/>
<circle cx="766" cy="823" r="2.5" fill="#A0FFA8" fill-opacity="0.28"/>
<circle cx="976" cy="351" r="2.5" fill="#65D8FF" fill-opacity="0.30"/>
<circle cx="200" cy="365" r="2" fill="#A0FFA8" fill-opacity="0.38"/>
<circle cx="654" cy="976" r="5" fill="#FFF3B2" fill-opacity="0.45"/>
<circle cx="892" cy="544" r="3" fill="#A0FFA8" fill-opacity="0.36"/>
<circle cx="1063" cy="812" r="5" fill="white" fill-opacity="0.47"/>
<circle cx="274" cy="1143" r="4" fill="#65D8FF" fill-opacity="0.32"/>
<circle cx="875" cy="660" r="5" fill="#65D8FF" fill-opacity="0.19"/>
<circle cx="559" cy="689" r="2.5" fill="white" fill-opacity="0.40"/>
<circle cx="930" cy="910" r="3" fill="#65D8FF" fill-opacity="0.42"/>
<circle cx="811" cy="318" r="2.5" fill="#FFF3B2" fill-opacity="0.45"/>
<circle cx="360" cy="776" r="5" fill="#65D8FF" fill-opacity="0.20"/>
<circle cx="711" cy="148" r="3" fill="#FFF3B2" fill-opacity="0.50"/>
<circle cx="629" cy="452" r="2" fill="#A0FFA8" fill-opacity="0.45"/>
<circle cx="1061" cy="299" r="4" fill="white" fill-opacity="0.17"/>
<circle cx="1118" cy="426" r="3" fill="#A0FFA8" fill-opacity="0.34"/>
<circle cx="272" cy="1272" r="2.5" fill="#A0FFA8" fill-opacity="0.27"/>
<circle cx="897" cy="125" r="3" fill="#A0FFA8" fill-opacity="0.47"/></g>
  <g opacity="0.85">
      <g>
        <circle cx="604" cy="744" r="240" fill="none" stroke="url(#accent)" stroke-width="18"/>
        <circle cx="604" cy="744" r="152" fill="none" stroke="rgba(255,255,255,0.18)" stroke-width="5"/>
        <path d="M604 470 L650 694 L878 744 L650 794 L604 1018 L558 794 L330 744 L558 694 Z" fill="none" stroke="#A0FFA8" stroke-width="15"/>
        <path d="M250 1120 C 352 980, 442 918, 604 840 C 742 776, 832 694, 944 518" fill="none" stroke="#FFF3B2" stroke-width="12" stroke-linecap="round"/>
        <circle cx="604" cy="744" r="26" fill="white" fill-opacity="0.88"/>
      </g></g>
  <g opacity="0.9">
    <rect x="84" y="92" width="220" height="34" rx="17" fill="rgba(255,255,255,0.05)" stroke="rgba(255,255,255,0.08)"/>
    <circle cx="114" cy="109" r="5" fill="#65D8FF"/>
    <circle cx="136" cy="109" r="5" fill="#A0FFA8"/>
    <circle cx="158" cy="109" r="5" fill="#FFF3B2"/>
    <text x="186" y="116" font-size="18" fill="rgba(255,255,255,0.72)" font-family="Inter, Arial, sans-serif" letter-spacing="1.2">Y-MAP PROFILE POSTER</text>
  </g>
  <g>
    <rect x="86" y="1284" width="1028" height="116" rx="26" fill="rgba(8,12,18,0.62)" stroke="rgba(255,255,255,0.08)"/>
    <path d="M118 1320 H1080" stroke="url(#accent)" stroke-width="2" stroke-opacity="0.7"/>
    <text x="122" y="1362" font-size="46" font-weight="800" fill="white" font-family="Inter, PingFang SC, Microsoft YaHei, Arial, sans-serif">清醒体验家</text>
    <text x="122" y="1394" font-size="20" letter-spacing="8" fill="rgba(255,255,255,0.55)" font-family="Inter, Arial, sans-serif">IASP · YOUTH MISSION &amp; ATTITUDE PROFILE</text>
  </g>
  <path d="M 40 280 L 320 -20" stroke="rgba(255,255,255,0.06)" stroke-width="50"/>
</svg>