<svg xmlns="http://www.w3.org/2000/svg" width="1200" height="1500" viewBox="0 0 1200 1500" role="img" aria-label="执剑卫道士">
  <defs>
    <linearGradient id="bg" x1="0" y1="0" x2="1" y2="1">
      <stop offset="0%" stop-color="#09101B"/>
      <stop offset="45%" stop-color="#111B2B"/>
      <stop offset="100%" stop-color="#090D14"/>
    </linearGradient>
    <radialGradient id="halo1" cx="26%" cy="22%" r="56%">
      <stop offset="0%" stop-color="#426CFF" stop-opacity="0.46"/>
      <stop offset="100%" stop-color="#426CFF" stop-opacity="0"/>
    </radialGradient>
    <radialGradient id="halo2" cx="76%" cy="74%" r="50%">
      <stop offset="0%" stop-color="#8DA6FF" stop-opacity="0.32"/>
      <stop offset="100%" stop-color="#8DA6FF" stop-opacity="0"/>
    </radialGradient>
    <linearGradient id="accent" x1="0" y1="0" x2="1" y2="1">
      <stop offset="0%" stop-color="#426CFF"/>
      <stop offset="55%" stop-color="#8DA6FF"/>
      <stop offset="100%" stop-color="#E3EEFF"/>
    </linearGradient>
    <linearGradient id="shine" x1="0" y1="0" x2="1" y2="0">
      <stop offset="0%" stop-color="rgba(255,255,255,0)"/>
      <stop offset="50%" stop-color="rgba(255,255,255,0.16)"/>
      <stop offset="100%" stop-color="rgba(255,255,255,0)"/>
    </linearGradient>
    <filter id="blur30" x="-30%" y="-30%" width="160%" height="160%"><feGaussianBlur stdDeviation="30"/></filter>
    <filter id="blur18" x="-30%" y="-30%" width="160%" height="160%"><feGaussianBlur stdDeviation="18"/></filter>
  </defs>
  <rect width="1200" height="1500" rx="56" fill="url(#bg)"/>
  <rect x="28" y="28" width="1144" height="1444" rx="40" fill="none" stroke="rgba(255,255,255,0.12)"/>
  <rect x="54" y="54" width="1092" height="1392" rx="28" fill="none" stroke="rgba(255,255,255,0.06)"/>
  <circle cx="300" cy="260" r="340" fill="url(#halo1)" filter="url(#blur30)"/>
  <circle cx="890" cy="1080" r="320" fill="url(#halo2)" filter="url(#blur30)"/>
  <g><path d="M 80 180 C 260 140, 370 220, 560 180 S 880 140, 1120 200.0" fill="none" stroke="rgba(255,255,255,0.08)" stroke-width="1.4"/>
<path d="M 80 300 C 260 248, 370 352, 560 300 S 880 248, 1120 326.0" fill="none" stroke="rgba(255,255,255,0.08)" stroke-width="1.4"/>
<path d="M 80 430 C 260 366, 370 494, 560 430 S 880 366, 1120 462.0" fill="none" stroke="rgba(255,255,255,0.08)" stroke-width="1.4"/>
<path d="M 80 560 C 260 520, 370 600, 560 560 S 880 520, 1120 580.0" fill="none" stroke="rgba(255,255,255,0.08)" stroke-width="1.4"/>
<path d="M 80 700 C 260 648, 370 752, 560 700 S 880 648, 1120 726.0" fill="none" stroke="rgba(255,255,255,0.08)" stroke-width="1.4"/>
<path d="M 80 860 C 260 796, 370 924, 560 860 S 880 796, 1120 892.0" fill="none" stroke="rgba(255,255,255,0.08)" stroke-width="1.4"/>
<path d="M 80 1030 C 260 990, 370 1070, 560 1030 S 880 990, 1120 1050.0" fill="none" stroke="rgba(255,255,255,0.08)" stroke-width="1.4"/>
<path d="M 80 1180 C 260 1128, 370 1232, 560 1180 S 880 1128, 1120 1206.0" fill="none" stroke="rgba(255,255,255,0.08)" stroke-width="1.4"/>
<path d="M 160 120 C 210 360, 110 860, 180 1380" fill="none" stroke="rgba(255,255,255,0.035)" stroke-width="1"/>
<path d="M 320 120 C 370 360, 270 860, 340 1380" fill="none" stroke="rgba(255,255,255,0.035)" stroke-width="1"/>
<path d="M 480 120 C 530 360, 430 860, 500 1380" fill="none" stroke="rgba(255,255,255,0.035)" stroke-width="1"/>
<path d="M 640 120 C 690 360, 590 860, 660 1380" fill="none" stroke="rgba(255,255,255,0.035)" stroke-width="1"/>
<path d="M 800 120 C 850 360, 750 860, 820 1380" fill="none" stroke="rgba(255,255,255,0.035)" stroke-width="1"/>
<path d="M 960 120 C 1010 360, 910 860, 980 1380" fill="none" stroke="rgba(255,255,255,0.035)" stroke-width="1"/></g>
  <g opacity="0.06"><text x="72" y="520" font-size="240" font-weight="800" fill="white" font-family="Inter, Arial, sans-serif" letter-spacing="18">IDMC</text></g>
  <g><circle cx="657" cy="883" r="5" fill="#426CFF" fill-opacity="0.38"/>
<circle cx="596" cy="800" r="4" fill="#426CFF" fill-opacity="0.49"/>
<circle cx="830" cy="1068" r="2.5" fill="#8DA6FF" fill-opacity="0.52"/>
<circle cx="639" cy="918" r="2" fill="#E3EEFF" fill-opacity="0.20"/>
<circle cx="546" cy="512" r="2" fill="white" fill-opacity="0.26"/>
<circle cx="965" cy="442" r="4" fill="#8DA6FF" fill-opacity="0.49"/>
<circle cx="281" cy="990" r="4" fill="white" fill-opacity="0.37"/>
<circle cx="804" cy="661" r="4" fill="white" fill-opacity="0.40"/>
<circle cx="786" cy="1205" r="5" fill="#E3EEFF" fill-opacity="0.46"/>
<circle cx="237" cy="414" r="3" fill="#8DA6FF" fill-opacity="0.23"/>
<circle cx="494" cy="547" r="2" fill="#426CFF" fill-opacity="0.47"/>
<circle cx="570" cy="1040" r="5" fill="#426CFF" fill-opacity="0.17"/>
<circle cx="843" cy="1334" r="3" fill="#8DA6FF" fill-opacity="0.47"/>
<circle cx="428" cy="783" r="2.5" fill="white" fill-opacity="0.18"/>
<circle cx="951" cy="1277" r="5" fill="#426CFF" fill-opacity="0.53"/>
<circle cx="922" cy="754" r="2" fill="#426CFF" fill-opacity="0.37"/>
<circle cx="675" cy="301" r="2.5" fill="#E3EEFF" fill-opacity="0.35"/>
<circle cx="915" cy="1257" r="2.5" fill="#E3EEFF" fill-opacity="0.20"/>
<circle cx="678" cy="1386" r="4" fill="#426CFF" fill-opacity="0.41"/>
<circle cx="1109" cy="269" r="4" fill="#E3EEFF" fill-opacity="0.27"/>
<circle cx="310" cy="1274" r="2.5" fill="#426CFF" fill-opacity="0.42"/>
<circle cx="497" cy="986" r="2" fill="#8DA6FF" fill-opacity="0.32"/>
<circle cx="452" cy="977" r="4" fill="#E3EEFF" fill-opacity="0.20"/>
<circle cx="424" cy="1089" r="3" fill="#8DA6FF" fill-opacity="0.42"/>
<circle cx="434" cy="919" r="5" fill="white" fill-opacity="0.23"/>
<circle cx="374" cy="458" r="5" fill="#8DA6FF" fill-opacity="0.50"/>
<circle cx="319" cy="686" r="2.5" fill="#8DA6FF" fill-opacity="0.40"/>
<circle cx="1046" cy="1297" r="2" fill="#426CFF" fill-opacity="0.18"/>
<circle cx="589" cy="1356" r="3" fill="white" fill-opacity="0.38"/>
<circle cx="321" cy="540" r="4" fill="#8DA6FF" fill-opacity="0.29"/>
<circle cx="806" cy="269" r="3" fill="white" fill-opacity="0.47"/>
<circle cx="1069" cy="1384" r="3" fill="white" fill-opacity="0.48"/>
<circle cx="718" cy="1082" r="2.5" fill="#E3EEFF" fill-opacity="0.53"/>
<circle cx="119" cy="1394" r="4" fill="#E3EEFF" fill-opacity="0.50"/></g>
  <g opacity="0.85">
      <g>
        <path d="M604 250 L662 410 L620 858 L588 858 L546 410 Z" fill="url(#accent)"/>
        <rect x="522" y="844" width="164" height="28" rx="14" fill="#E3EEFF"/>
        <path d="M604 874 L654 1000 L604 1158 L554 1000 Z" fill="#8DA6FF"/>
        <path d="M386 486 C386 382 478 322 604 322 C730 322 822 382 822 486 V710 C822 890 712 1012 604 1082 C496 1012 386 890 386 710 Z" fill="none" stroke="url(#accent)" stroke-width="20"/>
        <path d="M430 482 C430 412 498 374 604 374 C710 374 778 412 778 482" fill="none" stroke="#8DA6FF" stroke-width="8"/>
        <path d="M488 257 L604 184 L720 257" fill="none" stroke="#E3EEFF" stroke-width="12"/>
        <circle cx="604" cy="708" r="22" fill="white" fill-opacity="0.85"/>
      </g></g>
  <g opacity="0.9">
    <rect x="84" y="92" width="220" height="34" rx="17" fill="rgba(255,255,255,0.05)" stroke="rgba(255,255,255,0.08)"/>
    <circle cx="114" cy="109" r="5" fill="#426CFF"/>
    <circle cx="136" cy="109" r="5" fill="#8DA6FF"/>
    <circle cx="158" cy="109" r="5" fill="#E3EEFF"/>
    <text x="186" y="116" font-size="18" fill="rgba(255,255,255,0.72)" font-family="Inter, Arial, sans-serif" letter-spacing="1.2">Y-MAP PROFILE POSTER</text>
  </g>
  <g>
    <rect x="86" y="1284" width="1028" height="116" rx="26" fill="rgba(8,12,18,0.62)" stroke="rgba(255,255,255,0.08)"/>
    <path d="M118 1320 H1080" stroke="url(#accent)" stroke-width="2" stroke-opacity="0.7"/>
    <text x="122" y="1362" font-size="46" font-weight="800" fill="white" font-family="Inter, PingFang SC, Microsoft YaHei, Arial, sans-serif">执剑卫道士</text>
    <text x="122" y="1394" font-size="20" letter-spacing="8" fill="rgba(255,255,255,0.55)" font-family="Inter, Arial, sans-serif">IDMC · YOUTH MISSION &amp; ATTITUDE PROFILE</text>
  </g>
  <path d="M 40 280 L 320 -20" stroke="rgba(255,255,255,0.06)" stroke-width="50"/>
</svg>