<svg xmlns="http://www.w3.org/2000/svg" width="1200" height="1500" viewBox="0 0 1200 1500" role="img" aria-label="无界操盘手">
  <defs>
    <linearGradient id="bg" x1="0" y1="0" x2="1" y2="1">
      <stop offset="0%" stop-color="#09101B"/>
      <stop offset="45%" stop-color="#111B2B"/>
      <stop offset="100%" stop-color="#090D14"/>
    </linearGradient>
    <radialGradient id="halo1" cx="26%" cy="22%" r="56%">
      <stop offset="0%" stop-color="#FF7A72" stop-opacity="0.46"/>
      <stop offset="100%" stop-color="#FF7A72" stop-opacity="0"/>
    </radialGradient>
    <radialGradient id="halo2" cx="76%" cy="74%" r="50%">
      <stop offset="0%" stop-color="#FFB86B" stop-opacity="0.32"/>
      <stop offset="100%" stop-color="#FFB86B" stop-opacity="0"/>
    </radialGradient>
    <linearGradient id="accent" x1="0" y1="0" x2="1" y2="1">
      <stop offset="0%" stop-color="#FF7A72"/>
      <stop offset="55%" stop-color="#FFB86B"/>
      <stop offset="100%" stop-color="#FFE57C"/>
    </linearGradient>
    <linearGradient id="shine" x1="0" y1="0" x2="1" y2="0">
      <stop offset="0%" stop-color="rgba(255,255,255,0)"/>
      <stop offset="50%" stop-color="rgba(255,255,255,0.16)"/>
      <stop offset="100%" stop-color="rgba(255,255,255,0)"/>
    </linearGradient>
    <filter id="blur30" x="-30%" y="-30%" width="160%" height="160%"><feGaussianBlur stdDeviation="30"/></filter>
    <filter id="blur18" x="-30%" y="-30%" width="160%" height="160%"><feGaussianBlur stdDeviation="18"/></filter>
  </defs>
  <rect width="1200" height="1500" rx="56" fill="url(#bg)"/>
  <rect x="28" y="28" width="1144" height="1444" rx="40" fill="none" stroke="rgba(255,255,255,0.12)"/>
  <rect x="54" y="54" width="1092" height="1392" rx="28" fill="none" stroke="rgba(255,255,255,0.06)"/>
  <circle cx="300" cy="260" r="340" fill="url(#halo1)" filter="url(#blur30)"/>
  <circle cx="890" cy="1080" r="320" fill="url(#halo2)" filter="url(#blur30)"/>
  <g><path d="M 80 180 C 260 140, 370 220, 560 180 S 880 140, 1120 200.0" fill="none" stroke="rgba(255,255,255,0.08)" stroke-width="1.4"/>
<path d="M 80 300 C 260 248, 370 352, 560 300 S 880 248, 1120 326.0" fill="none" stroke="rgba(255,255,255,0.08)" stroke-width="1.4"/>
<path d="M 80 430 C 260 366, 370 494, 560 430 S 880 366, 1120 462.0" fill="none" stroke="rgba(255,255,255,0.08)" stroke-width="1.4"/>
<path d="M 80 560 C 260 520, 370 600, 560 560 S 880 520, 1120 580.0" fill="none" stroke="rgba(255,255,255,0.08)" stroke-width="1.4"/>
<path d="M 80 700 C 260 648, 370 752, 560 700 S 880 648, 1120 726.0" fill="none" stroke="rgba(255,255,255,0.08)" stroke-width="1.4"/>
<path d="M 80 860 C 260 796, 370 924, 560 860 S 880 796, 1120 892.0" fill="none" stroke="rgba(255,255,255,0.08)" stroke-width="1.4"/>
<path d="M 80 1030 C 260 990, 370 1070, 560 1030 S 880 990, 1120 1050.0" fill="none" stroke="rgba(255,255,255,0.08)" stroke-width="1.4"/>
<path d="M 80 1180 C 260 1128, 370 1232, 560 1180 S 880 1128, 1120 1206.0" fill="none" stroke="rgba(255,255,255,0.08)" stroke-width="1.4"/>
<path d="M 160 120 C 210 360, 110 860, 180 1380" fill="none" stroke="rgba(255,255,255,0.035)" stroke-width="1"/>
<path d="M 320 120 C 370 360, 270 860, 340 1380" fill="none" stroke="rgba(255,255,255,0.035)" stroke-width="1"/>
<path d="M 480 120 C 530 360, 430 860, 500 1380" fill="none" stroke="rgba(255,255,255,0.035)" stroke-width="1"/>
<path d="M 640 120 C 690 360, 590 860, 660 1380" fill="none" stroke="rgba(255,255,255,0.035)" stroke-width="1"/>
<path d="M 800 120 C 850 360, 750 860, 820 1380" fill="none" stroke="rgba(255,255,255,0.035)" stroke-width="1"/>
<path d="M 960 120 C 1010 360, 910 860, 980 1380" fill="none" stroke="rgba(255,255,255,0.035)" stroke-width="1"/></g>
  <g opacity="0.06"><text x="72" y="520" font-size="240" font-weight="800" fill="white" font-family="Inter, Arial, sans-serif" letter-spacing="18">RAMP</text></g>
  <g><circle cx="354" cy="514" r="4" fill="white" fill-opacity="0.35"/>
<circle cx="193" cy="566" r="3" fill="#FFB86B" fill-opacity="0.25"/>
<circle cx="183" cy="197" r="3" fill="#FF7A72" fill-opacity="0.26"/>
<circle cx="694" cy="889" r="2.5" fill="white" fill-opacity="0.22"/>
<circle cx="1017" cy="1247" r="3" fill="#FFB86B" fill-opacity="0.53"/>
<circle cx="713" cy="1258" r="5" fill="#FF7A72" fill-opacity="0.33"/>
<circle cx="417" cy="639" r="5" fill="white" fill-opacity="0.28"/>
<circle cx="985" cy="285" r="3" fill="#FFE57C" fill-opacity="0.38"/>
<circle cx="441" cy="622" r="4" fill="#FF7A72" fill-opacity="0.18"/>
<circle cx="84" cy="691" r="4" fill="#FF7A72" fill-opacity="0.47"/>
<circle cx="891" cy="836" r="3" fill="#FFB86B" fill-opacity="0.24"/>
<circle cx="758" cy="418" r="3" fill="#FF7A72" fill-opacity="0.34"/>
<circle cx="541" cy="1363" r="2.5" fill="#FFB86B" fill-opacity="0.16"/>
<circle cx="994" cy="1155" r="2.5" fill="#FFE57C" fill-opacity="0.16"/>
<circle cx="1018" cy="920" r="2" fill="white" fill-opacity="0.30"/>
<circle cx="1054" cy="1310" r="5" fill="#FFB86B" fill-opacity="0.27"/>
<circle cx="170" cy="1101" r="2" fill="white" fill-opacity="0.23"/>
<circle cx="545" cy="1266" r="2" fill="#FFB86B" fill-opacity="0.16"/>
<circle cx="643" cy="1400" r="2.5" fill="#FFE57C" fill-opacity="0.47"/>
<circle cx="686" cy="220" r="4" fill="#FF7A72" fill-opacity="0.24"/>
<circle cx="634" cy="551" r="2.5" fill="#FF7A72" fill-opacity="0.17"/>
<circle cx="858" cy="318" r="3" fill="#FF7A72" fill-opacity="0.40"/>
<circle cx="345" cy="698" r="2.5" fill="white" fill-opacity="0.37"/>
<circle cx="894" cy="632" r="2.5" fill="#FFE57C" fill-opacity="0.18"/>
<circle cx="418" cy="310" r="4" fill="white" fill-opacity="0.35"/>
<circle cx="887" cy="1292" r="4" fill="#FFE57C" fill-opacity="0.34"/>
<circle cx="1032" cy="1322" r="2.5" fill="#FF7A72" fill-opacity="0.50"/>
<circle cx="733" cy="1054" r="3" fill="#FFB86B" fill-opacity="0.29"/>
<circle cx="618" cy="1305" r="5" fill="#FFB86B" fill-opacity="0.23"/>
<circle cx="148" cy="931" r="4" fill="#FFB86B" fill-opacity="0.53"/>
<circle cx="653" cy="928" r="2" fill="#FF7A72" fill-opacity="0.48"/>
<circle cx="1070" cy="224" r="2" fill="white" fill-opacity="0.32"/>
<circle cx="285" cy="1170" r="4" fill="#FFB86B" fill-opacity="0.21"/>
<circle cx="750" cy="1251" r="2.5" fill="#FFE57C" fill-opacity="0.49"/></g>
  <g opacity="0.85">
      <g>
        <path d="M354 1096 L604 356 L854 1096" fill="rgba(255,255,255,0.03)" stroke="url(#accent)" stroke-width="18"/>
        <path d="M604 356 V1096" stroke="#FFB86B" stroke-width="10"/>
        <path d="M440 900 H768" stroke="#FFE57C" stroke-width="10"/>
        <circle cx="758" cy="616" r="24" fill="#FFB86B"/>
        <circle cx="758" cy="616" r="86" fill="none" stroke="#FF7A72" stroke-width="10"/>
        <circle cx="758" cy="616" r="136" fill="none" stroke="rgba(255,255,255,0.12)" stroke-width="4"/>
        <circle cx="604" cy="760" r="22" fill="white" fill-opacity="0.85"/>
      </g></g>
  <g opacity="0.9">
    <rect x="84" y="92" width="220" height="34" rx="17" fill="rgba(255,255,255,0.05)" stroke="rgba(255,255,255,0.08)"/>
    <circle cx="114" cy="109" r="5" fill="#FF7A72"/>
    <circle cx="136" cy="109" r="5" fill="#FFB86B"/>
    <circle cx="158" cy="109" r="5" fill="#FFE57C"/>
    <text x="186" y="116" font-size="18" fill="rgba(255,255,255,0.72)" font-family="Inter, Arial, sans-serif" letter-spacing="1.2">Y-MAP PROFILE POSTER</text>
  </g>
  <g>
    <rect x="86" y="1284" width="1028" height="116" rx="26" fill="rgba(8,12,18,0.62)" stroke="rgba(255,255,255,0.08)"/>
    <path d="M118 1320 H1080" stroke="url(#accent)" stroke-width="2" stroke-opacity="0.7"/>
    <text x="122" y="1362" font-size="46" font-weight="800" fill="white" font-family="Inter, PingFang SC, Microsoft YaHei, Arial, sans-serif">无界操盘手</text>
    <text x="122" y="1394" font-size="20" letter-spacing="8" fill="rgba(255,255,255,0.55)" font-family="Inter, Arial, sans-serif">RAMP · YOUTH MISSION &amp; ATTITUDE PROFILE</text>
  </g>
  <path d="M 40 280 L 320 -20" stroke="rgba(255,255,255,0.06)" stroke-width="50"/>
</svg>