<svg xmlns="http://www.w3.org/2000/svg" width="1200" height="1500" viewBox="0 0 1200 1500" role="img" aria-label="随性微光客">
  <defs>
    <linearGradient id="bg" x1="0" y1="0" x2="1" y2="1">
      <stop offset="0%" stop-color="#09101B"/>
      <stop offset="45%" stop-color="#111B2B"/>
      <stop offset="100%" stop-color="#090D14"/>
    </linearGradient>
    <radialGradient id="halo1" cx="26%" cy="22%" r="56%">
      <stop offset="0%" stop-color="#98D2FF" stop-opacity="0.46"/>
      <stop offset="100%" stop-color="#98D2FF" stop-opacity="0"/>
    </radialGradient>
    <radialGradient id="halo2" cx="76%" cy="74%" r="50%">
      <stop offset="0%" stop-color="#BDB7FF" stop-opacity="0.32"/>
      <stop offset="100%" stop-color="#BDB7FF" stop-opacity="0"/>
    </radialGradient>
    <linearGradient id="accent" x1="0" y1="0" x2="1" y2="1">
      <stop offset="0%" stop-color="#98D2FF"/>
      <stop offset="55%" stop-color="#BDB7FF"/>
      <stop offset="100%" stop-color="#FFE7BC"/>
    </linearGradient>
    <linearGradient id="shine" x1="0" y1="0" x2="1" y2="0">
      <stop offset="0%" stop-color="rgba(255,255,255,0)"/>
      <stop offset="50%" stop-color="rgba(255,255,255,0.16)"/>
      <stop offset="100%" stop-color="rgba(255,255,255,0)"/>
    </linearGradient>
    <filter id="blur30" x="-30%" y="-30%" width="160%" height="160%"><feGaussianBlur stdDeviation="30"/></filter>
    <filter id="blur18" x="-30%" y="-30%" width="160%" height="160%"><feGaussianBlur stdDeviation="18"/></filter>
  </defs>
  <rect width="1200" height="1500" rx="56" fill="url(#bg)"/>
  <rect x="28" y="28" width="1144" height="1444" rx="40" fill="none" stroke="rgba(255,255,255,0.12)"/>
  <rect x="54" y="54" width="1092" height="1392" rx="28" fill="none" stroke="rgba(255,255,255,0.06)"/>
  <circle cx="300" cy="260" r="340" fill="url(#halo1)" filter="url(#blur30)"/>
  <circle cx="890" cy="1080" r="320" fill="url(#halo2)" filter="url(#blur30)"/>
  <g><path d="M 80 180 C 260 140, 370 220, 560 180 S 880 140, 1120 200.0" fill="none" stroke="rgba(255,255,255,0.08)" stroke-width="1.4"/>
<path d="M 80 300 C 260 248, 370 352, 560 300 S 880 248, 1120 326.0" fill="none" stroke="rgba(255,255,255,0.08)" stroke-width="1.4"/>
<path d="M 80 430 C 260 366, 370 494, 560 430 S 880 366, 1120 462.0" fill="none" stroke="rgba(255,255,255,0.08)" stroke-width="1.4"/>
<path d="M 80 560 C 260 520, 370 600, 560 560 S 880 520, 1120 580.0" fill="none" stroke="rgba(255,255,255,0.08)" stroke-width="1.4"/>
<path d="M 80 700 C 260 648, 370 752, 560 700 S 880 648, 1120 726.0" fill="none" stroke="rgba(255,255,255,0.08)" stroke-width="1.4"/>
<path d="M 80 860 C 260 796, 370 924, 560 860 S 880 796, 1120 892.0" fill="none" stroke="rgba(255,255,255,0.08)" stroke-width="1.4"/>
<path d="M 80 1030 C 260 990, 370 1070, 560 1030 S 880 990, 1120 1050.0" fill="none" stroke="rgba(255,255,255,0.08)" stroke-width="1.4"/>
<path d="M 80 1180 C 260 1128, 370 1232, 560 1180 S 880 1128, 1120 1206.0" fill="none" stroke="rgba(255,255,255,0.08)" stroke-width="1.4"/>
<path d="M 160 120 C 210 360, 110 860, 180 1380" fill="none" stroke="rgba(255,255,255,0.035)" stroke-width="1"/>
<path d="M 320 120 C 370 360, 270 860, 340 1380" fill="none" stroke="rgba(255,255,255,0.035)" stroke-width="1"/>
<path d="M 480 120 C 530 360, 430 860, 500 1380" fill="none" stroke="rgba(255,255,255,0.035)" stroke-width="1"/>
<path d="M 640 120 C 690 360, 590 860, 660 1380" fill="none" stroke="rgba(255,255,255,0.035)" stroke-width="1"/>
<path d="M 800 120 C 850 360, 750 860, 820 1380" fill="none" stroke="rgba(255,255,255,0.035)" stroke-width="1"/>
<path d="M 960 120 C 1010 360, 910 860, 980 1380" fill="none" stroke="rgba(255,255,255,0.035)" stroke-width="1"/></g>
  <g opacity="0.06"><text x="72" y="520" font-size="240" font-weight="800" fill="white" font-family="Inter, Arial, sans-serif" letter-spacing="18">RASC</text></g>
  <g><circle cx="833" cy="914" r="2" fill="#98D2FF" fill-opacity="0.44"/>
<circle cx="276" cy="430" r="2" fill="white" fill-opacity="0.22"/>
<circle cx="678" cy="1019" r="4" fill="#FFE7BC" fill-opacity="0.35"/>
<circle cx="887" cy="1208" r="5" fill="#FFE7BC" fill-opacity="0.45"/>
<circle cx="186" cy="481" r="3" fill="#BDB7FF" fill-opacity="0.23"/>
<circle cx="1090" cy="737" r="4" fill="white" fill-opacity="0.16"/>
<circle cx="442" cy="613" r="2.5" fill="#BDB7FF" fill-opacity="0.33"/>
<circle cx="858" cy="1248" r="5" fill="white" fill-opacity="0.26"/>
<circle cx="668" cy="1369" r="5" fill="#98D2FF" fill-opacity="0.21"/>
<circle cx="690" cy="476" r="4" fill="#98D2FF" fill-opacity="0.53"/>
<circle cx="319" cy="1056" r="4" fill="white" fill-opacity="0.50"/>
<circle cx="485" cy="289" r="4" fill="#BDB7FF" fill-opacity="0.44"/>
<circle cx="856" cy="760" r="2" fill="#BDB7FF" fill-opacity="0.22"/>
<circle cx="1002" cy="517" r="5" fill="#BDB7FF" fill-opacity="0.44"/>
<circle cx="573" cy="839" r="2.5" fill="#FFE7BC" fill-opacity="0.27"/>
<circle cx="390" cy="163" r="5" fill="#FFE7BC" fill-opacity="0.15"/>
<circle cx="653" cy="603" r="2" fill="#BDB7FF" fill-opacity="0.38"/>
<circle cx="96" cy="1186" r="2" fill="white" fill-opacity="0.15"/>
<circle cx="1065" cy="540" r="2" fill="white" fill-opacity="0.48"/>
<circle cx="602" cy="521" r="5" fill="#BDB7FF" fill-opacity="0.20"/>
<circle cx="85" cy="1264" r="3" fill="#98D2FF" fill-opacity="0.42"/>
<circle cx="948" cy="531" r="5" fill="#98D2FF" fill-opacity="0.37"/>
<circle cx="413" cy="570" r="3" fill="#98D2FF" fill-opacity="0.40"/>
<circle cx="998" cy="1391" r="5" fill="white" fill-opacity="0.23"/>
<circle cx="1006" cy="677" r="4" fill="#FFE7BC" fill-opacity="0.40"/>
<circle cx="315" cy="921" r="3" fill="#98D2FF" fill-opacity="0.51"/>
<circle cx="356" cy="1343" r="2" fill="#98D2FF" fill-opacity="0.40"/>
<circle cx="640" cy="552" r="2" fill="#98D2FF" fill-opacity="0.34"/>
<circle cx="447" cy="1041" r="5" fill="#FFE7BC" fill-opacity="0.30"/>
<circle cx="486" cy="1301" r="5" fill="#FFE7BC" fill-opacity="0.17"/>
<circle cx="737" cy="575" r="2.5" fill="#BDB7FF" fill-opacity="0.46"/>
<circle cx="918" cy="98" r="4" fill="white" fill-opacity="0.36"/>
<circle cx="1100" cy="456" r="5" fill="#FFE7BC" fill-opacity="0.25"/>
<circle cx="384" cy="601" r="5" fill="#BDB7FF" fill-opacity="0.33"/></g>
  <g opacity="0.85">
      <g>
        <path d="M604 404 C 528 404, 472 468, 472 556 C 472 676, 540 772, 604 856 C 668 772, 736 676, 736 556 C 736 468, 680 404, 604 404 Z" fill="rgba(255,255,255,0.03)" stroke="url(#accent)" stroke-width="18"/>
        <path d="M510 1048 H698" stroke="#FFE7BC" stroke-width="18" stroke-linecap="round"/>
        <path d="M548 1048 C 548 1124, 594 1176, 662 1176" fill="none" stroke="#BDB7FF" stroke-width="12" stroke-linecap="round"/>
        <path d="M604 334 V404" stroke="#BDB7FF" stroke-width="12"/>
        <circle cx="604" cy="586" r="18" fill="white" fill-opacity="0.86"/>
        <circle cx="454" cy="348" r="10" fill="#FFE7BC" fill-opacity="0.7"/>
        <circle cx="760" cy="296" r="7" fill="#98D2FF" fill-opacity="0.7"/>
      </g></g>
  <g opacity="0.9">
    <rect x="84" y="92" width="220" height="34" rx="17" fill="rgba(255,255,255,0.05)" stroke="rgba(255,255,255,0.08)"/>
    <circle cx="114" cy="109" r="5" fill="#98D2FF"/>
    <circle cx="136" cy="109" r="5" fill="#BDB7FF"/>
    <circle cx="158" cy="109" r="5" fill="#FFE7BC"/>
    <text x="186" y="116" font-size="18" fill="rgba(255,255,255,0.72)" font-family="Inter, Arial, sans-serif" letter-spacing="1.2">Y-MAP PROFILE POSTER</text>
  </g>
  <g>
    <rect x="86" y="1284" width="1028" height="116" rx="26" fill="rgba(8,12,18,0.62)" stroke="rgba(255,255,255,0.08)"/>
    <path d="M118 1320 H1080" stroke="url(#accent)" stroke-width="2" stroke-opacity="0.7"/>
    <text x="122" y="1362" font-size="46" font-weight="800" fill="white" font-family="Inter, PingFang SC, Microsoft YaHei, Arial, sans-serif">随性微光客</text>
    <text x="122" y="1394" font-size="20" letter-spacing="8" fill="rgba(255,255,255,0.55)" font-family="Inter, Arial, sans-serif">RASC · YOUTH MISSION &amp; ATTITUDE PROFILE</text>
  </g>
  <path d="M 40 280 L 320 -20" stroke="rgba(255,255,255,0.06)" stroke-width="50"/>
</svg>