<svg xmlns="http://www.w3.org/2000/svg" width="1200" height="1500" viewBox="0 0 1200 1500" role="img" aria-label="灵巧游牧民">
  <defs>
    <linearGradient id="bg" x1="0" y1="0" x2="1" y2="1">
      <stop offset="0%" stop-color="#09101B"/>
      <stop offset="45%" stop-color="#111B2B"/>
      <stop offset="100%" stop-color="#090D14"/>
    </linearGradient>
    <radialGradient id="halo1" cx="26%" cy="22%" r="56%">
      <stop offset="0%" stop-color="#FFA268" stop-opacity="0.46"/>
      <stop offset="100%" stop-color="#FFA268" stop-opacity="0"/>
    </radialGradient>
    <radialGradient id="halo2" cx="76%" cy="74%" r="50%">
      <stop offset="0%" stop-color="#FF67B5" stop-opacity="0.32"/>
      <stop offset="100%" stop-color="#FF67B5" stop-opacity="0"/>
    </radialGradient>
    <linearGradient id="accent" x1="0" y1="0" x2="1" y2="1">
      <stop offset="0%" stop-color="#FFA268"/>
      <stop offset="55%" stop-color="#FF67B5"/>
      <stop offset="100%" stop-color="#FFD7B2"/>
    </linearGradient>
    <linearGradient id="shine" x1="0" y1="0" x2="1" y2="0">
      <stop offset="0%" stop-color="rgba(255,255,255,0)"/>
      <stop offset="50%" stop-color="rgba(255,255,255,0.16)"/>
      <stop offset="100%" stop-color="rgba(255,255,255,0)"/>
    </linearGradient>
    <filter id="blur30" x="-30%" y="-30%" width="160%" height="160%"><feGaussianBlur stdDeviation="30"/></filter>
    <filter id="blur18" x="-30%" y="-30%" width="160%" height="160%"><feGaussianBlur stdDeviation="18"/></filter>
  </defs>
  <rect width="1200" height="1500" rx="56" fill="url(#bg)"/>
  <rect x="28" y="28" width="1144" height="1444" rx="40" fill="none" stroke="rgba(255,255,255,0.12)"/>
  <rect x="54" y="54" width="1092" height="1392" rx="28" fill="none" stroke="rgba(255,255,255,0.06)"/>
  <circle cx="300" cy="260" r="340" fill="url(#halo1)" filter="url(#blur30)"/>
  <circle cx="890" cy="1080" r="320" fill="url(#halo2)" filter="url(#blur30)"/>
  <g><path d="M 80 180 C 260 140, 370 220, 560 180 S 880 140, 1120 200.0" fill="none" stroke="rgba(255,255,255,0.08)" stroke-width="1.4"/>
<path d="M 80 300 C 260 248, 370 352, 560 300 S 880 248, 1120 326.0" fill="none" stroke="rgba(255,255,255,0.08)" stroke-width="1.4"/>
<path d="M 80 430 C 260 366, 370 494, 560 430 S 880 366, 1120 462.0" fill="none" stroke="rgba(255,255,255,0.08)" stroke-width="1.4"/>
<path d="M 80 560 C 260 520, 370 600, 560 560 S 880 520, 1120 580.0" fill="none" stroke="rgba(255,255,255,0.08)" stroke-width="1.4"/>
<path d="M 80 700 C 260 648, 370 752, 560 700 S 880 648, 1120 726.0" fill="none" stroke="rgba(255,255,255,0.08)" stroke-width="1.4"/>
<path d="M 80 860 C 260 796, 370 924, 560 860 S 880 796, 1120 892.0" fill="none" stroke="rgba(255,255,255,0.08)" stroke-width="1.4"/>
<path d="M 80 1030 C 260 990, 370 1070, 560 1030 S 880 990, 1120 1050.0" fill="none" stroke="rgba(255,255,255,0.08)" stroke-width="1.4"/>
<path d="M 80 1180 C 260 1128, 370 1232, 560 1180 S 880 1128, 1120 1206.0" fill="none" stroke="rgba(255,255,255,0.08)" stroke-width="1.4"/>
<path d="M 160 120 C 210 360, 110 860, 180 1380" fill="none" stroke="rgba(255,255,255,0.035)" stroke-width="1"/>
<path d="M 320 120 C 370 360, 270 860, 340 1380" fill="none" stroke="rgba(255,255,255,0.035)" stroke-width="1"/>
<path d="M 480 120 C 530 360, 430 860, 500 1380" fill="none" stroke="rgba(255,255,255,0.035)" stroke-width="1"/>
<path d="M 640 120 C 690 360, 590 860, 660 1380" fill="none" stroke="rgba(255,255,255,0.035)" stroke-width="1"/>
<path d="M 800 120 C 850 360, 750 860, 820 1380" fill="none" stroke="rgba(255,255,255,0.035)" stroke-width="1"/>
<path d="M 960 120 C 1010 360, 910 860, 980 1380" fill="none" stroke="rgba(255,255,255,0.035)" stroke-width="1"/></g>
  <g opacity="0.06"><text x="72" y="520" font-size="240" font-weight="800" fill="white" font-family="Inter, Arial, sans-serif" letter-spacing="18">RASP</text></g>
  <g><circle cx="218" cy="477" r="3" fill="#FFD7B2" fill-opacity="0.22"/>
<circle cx="724" cy="1053" r="4" fill="#FF67B5" fill-opacity="0.53"/>
<circle cx="410" cy="1303" r="3" fill="#FFD7B2" fill-opacity="0.48"/>
<circle cx="518" cy="446" r="5" fill="white" fill-opacity="0.21"/>
<circle cx="285" cy="1246" r="3" fill="#FFD7B2" fill-opacity="0.52"/>
<circle cx="672" cy="1374" r="4" fill="#FFD7B2" fill-opacity="0.52"/>
<circle cx="184" cy="922" r="2" fill="white" fill-opacity="0.33"/>
<circle cx="761" cy="1284" r="3" fill="white" fill-opacity="0.31"/>
<circle cx="649" cy="1307" r="4" fill="#FFA268" fill-opacity="0.18"/>
<circle cx="1035" cy="401" r="2" fill="#FFD7B2" fill-opacity="0.39"/>
<circle cx="404" cy="392" r="5" fill="#FF67B5" fill-opacity="0.21"/>
<circle cx="1082" cy="1127" r="2" fill="white" fill-opacity="0.53"/>
<circle cx="1037" cy="1353" r="3" fill="#FFA268" fill-opacity="0.30"/>
<circle cx="186" cy="814" r="2.5" fill="white" fill-opacity="0.39"/>
<circle cx="211" cy="1383" r="5" fill="#FFD7B2" fill-opacity="0.26"/>
<circle cx="793" cy="197" r="2.5" fill="white" fill-opacity="0.43"/>
<circle cx="327" cy="1362" r="2.5" fill="#FFD7B2" fill-opacity="0.19"/>
<circle cx="1015" cy="157" r="5" fill="#FFA268" fill-opacity="0.23"/>
<circle cx="1015" cy="173" r="2" fill="white" fill-opacity="0.16"/>
<circle cx="98" cy="1226" r="2.5" fill="white" fill-opacity="0.33"/>
<circle cx="918" cy="924" r="3" fill="white" fill-opacity="0.27"/>
<circle cx="438" cy="1024" r="2.5" fill="#FFD7B2" fill-opacity="0.42"/>
<circle cx="973" cy="1007" r="5" fill="#FF67B5" fill-opacity="0.32"/>
<circle cx="328" cy="1336" r="5" fill="#FFA268" fill-opacity="0.31"/>
<circle cx="672" cy="295" r="3" fill="#FF67B5" fill-opacity="0.16"/>
<circle cx="680" cy="378" r="2" fill="#FF67B5" fill-opacity="0.53"/>
<circle cx="253" cy="820" r="2.5" fill="white" fill-opacity="0.19"/>
<circle cx="438" cy="153" r="3" fill="#FF67B5" fill-opacity="0.50"/>
<circle cx="522" cy="1252" r="5" fill="#FFA268" fill-opacity="0.43"/>
<circle cx="802" cy="96" r="2" fill="#FF67B5" fill-opacity="0.40"/>
<circle cx="106" cy="780" r="2" fill="#FF67B5" fill-opacity="0.19"/>
<circle cx="247" cy="787" r="5" fill="#FFA268" fill-opacity="0.16"/>
<circle cx="633" cy="400" r="2" fill="#FF67B5" fill-opacity="0.49"/>
<circle cx="743" cy="882" r="2.5" fill="#FFA268" fill-opacity="0.34"/></g>
  <g opacity="0.85">
      <g>
        <path d="M260 1110 C 346 1058, 440 968, 522 842 C 612 700, 718 590, 860 480" fill="none" stroke="url(#accent)" stroke-width="12" stroke-linecap="round"/>
        <polygon points="860,480 950,570 860,660 770,570" fill="rgba(255,255,255,0.03)" stroke="#FF67B5" stroke-width="16"/>
        <path d="M522 842 L470 938 M470 938 L524 1002" stroke="#FFD7B2" stroke-width="10" stroke-linecap="round"/>
        <path d="M340 1220 C 440 1160, 560 1116, 702 1100" fill="none" stroke="rgba(255,255,255,0.18)" stroke-width="4"/>
        <circle cx="862" cy="570" r="18" fill="white" fill-opacity="0.82"/>
      </g></g>
  <g opacity="0.9">
    <rect x="84" y="92" width="220" height="34" rx="17" fill="rgba(255,255,255,0.05)" stroke="rgba(255,255,255,0.08)"/>
    <circle cx="114" cy="109" r="5" fill="#FFA268"/>
    <circle cx="136" cy="109" r="5" fill="#FF67B5"/>
    <circle cx="158" cy="109" r="5" fill="#FFD7B2"/>
    <text x="186" y="116" font-size="18" fill="rgba(255,255,255,0.72)" font-family="Inter, Arial, sans-serif" letter-spacing="1.2">Y-MAP PROFILE POSTER</text>
  </g>
  <g>
    <rect x="86" y="1284" width="1028" height="116" rx="26" fill="rgba(8,12,18,0.62)" stroke="rgba(255,255,255,0.08)"/>
    <path d="M118 1320 H1080" stroke="url(#accent)" stroke-width="2" stroke-opacity="0.7"/>
    <text x="122" y="1362" font-size="46" font-weight="800" fill="white" font-family="Inter, PingFang SC, Microsoft YaHei, Arial, sans-serif">灵巧游牧民</text>
    <text x="122" y="1394" font-size="20" letter-spacing="8" fill="rgba(255,255,255,0.55)" font-family="Inter, Arial, sans-serif">RASP · YOUTH MISSION &amp; ATTITUDE PROFILE</text>
  </g>
  <path d="M 40 280 L 320 -20" stroke="rgba(255,255,255,0.06)" stroke-width="50"/>
</svg>