<svg xmlns="http://www.w3.org/2000/svg" width="1200" height="1500" viewBox="0 0 1200 1500" role="img" aria-label="中流压舱石">
  <defs>
    <linearGradient id="bg" x1="0" y1="0" x2="1" y2="1">
      <stop offset="0%" stop-color="#09101B"/>
      <stop offset="45%" stop-color="#111B2B"/>
      <stop offset="100%" stop-color="#090D14"/>
    </linearGradient>
    <radialGradient id="halo1" cx="26%" cy="22%" r="56%">
      <stop offset="0%" stop-color="#5E83FF" stop-opacity="0.46"/>
      <stop offset="100%" stop-color="#5E83FF" stop-opacity="0"/>
    </radialGradient>
    <radialGradient id="halo2" cx="76%" cy="74%" r="50%">
      <stop offset="0%" stop-color="#6DE6D8" stop-opacity="0.32"/>
      <stop offset="100%" stop-color="#6DE6D8" stop-opacity="0"/>
    </radialGradient>
    <linearGradient id="accent" x1="0" y1="0" x2="1" y2="1">
      <stop offset="0%" stop-color="#5E83FF"/>
      <stop offset="55%" stop-color="#6DE6D8"/>
      <stop offset="100%" stop-color="#EFF4FF"/>
    </linearGradient>
    <linearGradient id="shine" x1="0" y1="0" x2="1" y2="0">
      <stop offset="0%" stop-color="rgba(255,255,255,0)"/>
      <stop offset="50%" stop-color="rgba(255,255,255,0.16)"/>
      <stop offset="100%" stop-color="rgba(255,255,255,0)"/>
    </linearGradient>
    <filter id="blur30" x="-30%" y="-30%" width="160%" height="160%"><feGaussianBlur stdDeviation="30"/></filter>
    <filter id="blur18" x="-30%" y="-30%" width="160%" height="160%"><feGaussianBlur stdDeviation="18"/></filter>
  </defs>
  <rect width="1200" height="1500" rx="56" fill="url(#bg)"/>
  <rect x="28" y="28" width="1144" height="1444" rx="40" fill="none" stroke="rgba(255,255,255,0.12)"/>
  <rect x="54" y="54" width="1092" height="1392" rx="28" fill="none" stroke="rgba(255,255,255,0.06)"/>
  <circle cx="300" cy="260" r="340" fill="url(#halo1)" filter="url(#blur30)"/>
  <circle cx="890" cy="1080" r="320" fill="url(#halo2)" filter="url(#blur30)"/>
  <g><path d="M 80 180 C 260 140, 370 220, 560 180 S 880 140, 1120 200.0" fill="none" stroke="rgba(255,255,255,0.08)" stroke-width="1.4"/>
<path d="M 80 300 C 260 248, 370 352, 560 300 S 880 248, 1120 326.0" fill="none" stroke="rgba(255,255,255,0.08)" stroke-width="1.4"/>
<path d="M 80 430 C 260 366, 370 494, 560 430 S 880 366, 1120 462.0" fill="none" stroke="rgba(255,255,255,0.08)" stroke-width="1.4"/>
<path d="M 80 560 C 260 520, 370 600, 560 560 S 880 520, 1120 580.0" fill="none" stroke="rgba(255,255,255,0.08)" stroke-width="1.4"/>
<path d="M 80 700 C 260 648, 370 752, 560 700 S 880 648, 1120 726.0" fill="none" stroke="rgba(255,255,255,0.08)" stroke-width="1.4"/>
<path d="M 80 860 C 260 796, 370 924, 560 860 S 880 796, 1120 892.0" fill="none" stroke="rgba(255,255,255,0.08)" stroke-width="1.4"/>
<path d="M 80 1030 C 260 990, 370 1070, 560 1030 S 880 990, 1120 1050.0" fill="none" stroke="rgba(255,255,255,0.08)" stroke-width="1.4"/>
<path d="M 80 1180 C 260 1128, 370 1232, 560 1180 S 880 1128, 1120 1206.0" fill="none" stroke="rgba(255,255,255,0.08)" stroke-width="1.4"/>
<path d="M 160 120 C 210 360, 110 860, 180 1380" fill="none" stroke="rgba(255,255,255,0.035)" stroke-width="1"/>
<path d="M 320 120 C 370 360, 270 860, 340 1380" fill="none" stroke="rgba(255,255,255,0.035)" stroke-width="1"/>
<path d="M 480 120 C 530 360, 430 860, 500 1380" fill="none" stroke="rgba(255,255,255,0.035)" stroke-width="1"/>
<path d="M 640 120 C 690 360, 590 860, 660 1380" fill="none" stroke="rgba(255,255,255,0.035)" stroke-width="1"/>
<path d="M 800 120 C 850 360, 750 860, 820 1380" fill="none" stroke="rgba(255,255,255,0.035)" stroke-width="1"/>
<path d="M 960 120 C 1010 360, 910 860, 980 1380" fill="none" stroke="rgba(255,255,255,0.035)" stroke-width="1"/></g>
  <g opacity="0.06"><text x="72" y="520" font-size="240" font-weight="800" fill="white" font-family="Inter, Arial, sans-serif" letter-spacing="18">RDMC</text></g>
  <g><circle cx="440" cy="158" r="4" fill="#5E83FF" fill-opacity="0.52"/>
<circle cx="971" cy="1322" r="5" fill="white" fill-opacity="0.49"/>
<circle cx="999" cy="722" r="2.5" fill="#EFF4FF" fill-opacity="0.39"/>
<circle cx="705" cy="1036" r="3" fill="#EFF4FF" fill-opacity="0.36"/>
<circle cx="647" cy="619" r="3" fill="#6DE6D8" fill-opacity="0.33"/>
<circle cx="424" cy="553" r="5" fill="white" fill-opacity="0.49"/>
<circle cx="681" cy="366" r="5" fill="#EFF4FF" fill-opacity="0.29"/>
<circle cx="450" cy="1021" r="3" fill="white" fill-opacity="0.25"/>
<circle cx="524" cy="761" r="4" fill="#6DE6D8" fill-opacity="0.36"/>
<circle cx="186" cy="154" r="5" fill="white" fill-opacity="0.46"/>
<circle cx="1014" cy="819" r="2.5" fill="white" fill-opacity="0.21"/>
<circle cx="848" cy="302" r="3" fill="#5E83FF" fill-opacity="0.40"/>
<circle cx="1072" cy="1395" r="2.5" fill="#6DE6D8" fill-opacity="0.50"/>
<circle cx="105" cy="792" r="5" fill="#5E83FF" fill-opacity="0.38"/>
<circle cx="989" cy="1136" r="2.5" fill="#EFF4FF" fill-opacity="0.41"/>
<circle cx="1006" cy="1117" r="2" fill="#EFF4FF" fill-opacity="0.44"/>
<circle cx="700" cy="612" r="4" fill="#6DE6D8" fill-opacity="0.25"/>
<circle cx="518" cy="1386" r="5" fill="#6DE6D8" fill-opacity="0.33"/>
<circle cx="563" cy="500" r="2" fill="#6DE6D8" fill-opacity="0.45"/>
<circle cx="389" cy="588" r="2" fill="#5E83FF" fill-opacity="0.37"/>
<circle cx="778" cy="802" r="4" fill="white" fill-opacity="0.17"/>
<circle cx="291" cy="281" r="4" fill="white" fill-opacity="0.45"/>
<circle cx="852" cy="405" r="4" fill="white" fill-opacity="0.15"/>
<circle cx="437" cy="1320" r="3" fill="white" fill-opacity="0.20"/>
<circle cx="508" cy="959" r="4" fill="#5E83FF" fill-opacity="0.23"/>
<circle cx="964" cy="969" r="5" fill="#6DE6D8" fill-opacity="0.50"/>
<circle cx="303" cy="596" r="4" fill="white" fill-opacity="0.34"/>
<circle cx="245" cy="1186" r="4" fill="white" fill-opacity="0.43"/>
<circle cx="1045" cy="1249" r="4" fill="#5E83FF" fill-opacity="0.45"/>
<circle cx="124" cy="462" r="2.5" fill="#EFF4FF" fill-opacity="0.40"/>
<circle cx="371" cy="1403" r="4" fill="#EFF4FF" fill-opacity="0.31"/>
<circle cx="479" cy="267" r="2.5" fill="#5E83FF" fill-opacity="0.40"/>
<circle cx="766" cy="835" r="3" fill="#5E83FF" fill-opacity="0.36"/>
<circle cx="351" cy="308" r="2" fill="#5E83FF" fill-opacity="0.48"/></g>
  <g opacity="0.85">
      <g>
        <rect x="520" y="314" width="168" height="706" rx="24" fill="rgba(255,255,255,0.03)" stroke="url(#accent)" stroke-width="18"/>
        <path d="M448 392 H760 M448 942 H760" stroke="#6DE6D8" stroke-width="15"/>
        <path d="M604 1018 V1186" stroke="#EFF4FF" stroke-width="14"/>
        <path d="M486 1140 C 530 1186, 560 1204, 604 1204 C 648 1204, 678 1186, 722 1140" fill="none" stroke="#EFF4FF" stroke-width="15"/>
        <path d="M380 1082 C460 1016, 530 980, 604 980 C678 980, 748 1016, 828 1082" fill="none" stroke="rgba(255,255,255,0.16)" stroke-width="6"/>
        <circle cx="604" cy="666" r="24" fill="white" fill-opacity="0.86"/>
      </g></g>
  <g opacity="0.9">
    <rect x="84" y="92" width="220" height="34" rx="17" fill="rgba(255,255,255,0.05)" stroke="rgba(255,255,255,0.08)"/>
    <circle cx="114" cy="109" r="5" fill="#5E83FF"/>
    <circle cx="136" cy="109" r="5" fill="#6DE6D8"/>
    <circle cx="158" cy="109" r="5" fill="#EFF4FF"/>
    <text x="186" y="116" font-size="18" fill="rgba(255,255,255,0.72)" font-family="Inter, Arial, sans-serif" letter-spacing="1.2">Y-MAP PROFILE POSTER</text>
  </g>
  <g>
    <rect x="86" y="1284" width="1028" height="116" rx="26" fill="rgba(8,12,18,0.62)" stroke="rgba(255,255,255,0.08)"/>
    <path d="M118 1320 H1080" stroke="url(#accent)" stroke-width="2" stroke-opacity="0.7"/>
    <text x="122" y="1362" font-size="46" font-weight="800" fill="white" font-family="Inter, PingFang SC, Microsoft YaHei, Arial, sans-serif">中流压舱石</text>
    <text x="122" y="1394" font-size="20" letter-spacing="8" fill="rgba(255,255,255,0.55)" font-family="Inter, Arial, sans-serif">RDMC · YOUTH MISSION &amp; ATTITUDE PROFILE</text>
  </g>
  <path d="M 40 280 L 320 -20" stroke="rgba(255,255,255,0.06)" stroke-width="50"/>
</svg>