<svg xmlns="http://www.w3.org/2000/svg" width="1200" height="1500" viewBox="0 0 1200 1500" role="img" aria-label="重装破阵军">
  <defs>
    <linearGradient id="bg" x1="0" y1="0" x2="1" y2="1">
      <stop offset="0%" stop-color="#09101B"/>
      <stop offset="45%" stop-color="#111B2B"/>
      <stop offset="100%" stop-color="#090D14"/>
    </linearGradient>
    <radialGradient id="halo1" cx="26%" cy="22%" r="56%">
      <stop offset="0%" stop-color="#FF875C" stop-opacity="0.46"/>
      <stop offset="100%" stop-color="#FF875C" stop-opacity="0"/>
    </radialGradient>
    <radialGradient id="halo2" cx="76%" cy="74%" r="50%">
      <stop offset="0%" stop-color="#FF5A6E" stop-opacity="0.32"/>
      <stop offset="100%" stop-color="#FF5A6E" stop-opacity="0"/>
    </radialGradient>
    <linearGradient id="accent" x1="0" y1="0" x2="1" y2="1">
      <stop offset="0%" stop-color="#FF875C"/>
      <stop offset="55%" stop-color="#FF5A6E"/>
      <stop offset="100%" stop-color="#FFD56A"/>
    </linearGradient>
    <linearGradient id="shine" x1="0" y1="0" x2="1" y2="0">
      <stop offset="0%" stop-color="rgba(255,255,255,0)"/>
      <stop offset="50%" stop-color="rgba(255,255,255,0.16)"/>
      <stop offset="100%" stop-color="rgba(255,255,255,0)"/>
    </linearGradient>
    <filter id="blur30" x="-30%" y="-30%" width="160%" height="160%"><feGaussianBlur stdDeviation="30"/></filter>
    <filter id="blur18" x="-30%" y="-30%" width="160%" height="160%"><feGaussianBlur stdDeviation="18"/></filter>
  </defs>
  <rect width="1200" height="1500" rx="56" fill="url(#bg)"/>
  <rect x="28" y="28" width="1144" height="1444" rx="40" fill="none" stroke="rgba(255,255,255,0.12)"/>
  <rect x="54" y="54" width="1092" height="1392" rx="28" fill="none" stroke="rgba(255,255,255,0.06)"/>
  <circle cx="300" cy="260" r="340" fill="url(#halo1)" filter="url(#blur30)"/>
  <circle cx="890" cy="1080" r="320" fill="url(#halo2)" filter="url(#blur30)"/>
  <g><path d="M 80 180 C 260 140, 370 220, 560 180 S 880 140, 1120 200.0" fill="none" stroke="rgba(255,255,255,0.08)" stroke-width="1.4"/>
<path d="M 80 300 C 260 248, 370 352, 560 300 S 880 248, 1120 326.0" fill="none" stroke="rgba(255,255,255,0.08)" stroke-width="1.4"/>
<path d="M 80 430 C 260 366, 370 494, 560 430 S 880 366, 1120 462.0" fill="none" stroke="rgba(255,255,255,0.08)" stroke-width="1.4"/>
<path d="M 80 560 C 260 520, 370 600, 560 560 S 880 520, 1120 580.0" fill="none" stroke="rgba(255,255,255,0.08)" stroke-width="1.4"/>
<path d="M 80 700 C 260 648, 370 752, 560 700 S 880 648, 1120 726.0" fill="none" stroke="rgba(255,255,255,0.08)" stroke-width="1.4"/>
<path d="M 80 860 C 260 796, 370 924, 560 860 S 880 796, 1120 892.0" fill="none" stroke="rgba(255,255,255,0.08)" stroke-width="1.4"/>
<path d="M 80 1030 C 260 990, 370 1070, 560 1030 S 880 990, 1120 1050.0" fill="none" stroke="rgba(255,255,255,0.08)" stroke-width="1.4"/>
<path d="M 80 1180 C 260 1128, 370 1232, 560 1180 S 880 1128, 1120 1206.0" fill="none" stroke="rgba(255,255,255,0.08)" stroke-width="1.4"/>
<path d="M 160 120 C 210 360, 110 860, 180 1380" fill="none" stroke="rgba(255,255,255,0.035)" stroke-width="1"/>
<path d="M 320 120 C 370 360, 270 860, 340 1380" fill="none" stroke="rgba(255,255,255,0.035)" stroke-width="1"/>
<path d="M 480 120 C 530 360, 430 860, 500 1380" fill="none" stroke="rgba(255,255,255,0.035)" stroke-width="1"/>
<path d="M 640 120 C 690 360, 590 860, 660 1380" fill="none" stroke="rgba(255,255,255,0.035)" stroke-width="1"/>
<path d="M 800 120 C 850 360, 750 860, 820 1380" fill="none" stroke="rgba(255,255,255,0.035)" stroke-width="1"/>
<path d="M 960 120 C 1010 360, 910 860, 980 1380" fill="none" stroke="rgba(255,255,255,0.035)" stroke-width="1"/></g>
  <g opacity="0.06"><text x="72" y="520" font-size="240" font-weight="800" fill="white" font-family="Inter, Arial, sans-serif" letter-spacing="18">RDMP</text></g>
  <g><circle cx="695" cy="696" r="5" fill="#FFD56A" fill-opacity="0.34"/>
<circle cx="120" cy="884" r="2.5" fill="#FF875C" fill-opacity="0.38"/>
<circle cx="504" cy="996" r="3" fill="#FF875C" fill-opacity="0.48"/>
<circle cx="338" cy="779" r="2.5" fill="#FF5A6E" fill-opacity="0.37"/>
<circle cx="891" cy="428" r="5" fill="#FF5A6E" fill-opacity="0.18"/>
<circle cx="727" cy="1002" r="3" fill="#FF875C" fill-opacity="0.47"/>
<circle cx="166" cy="122" r="3" fill="#FFD56A" fill-opacity="0.16"/>
<circle cx="371" cy="1313" r="4" fill="#FF875C" fill-opacity="0.24"/>
<circle cx="369" cy="349" r="2" fill="#FF5A6E" fill-opacity="0.47"/>
<circle cx="1082" cy="685" r="3" fill="#FF5A6E" fill-opacity="0.39"/>
<circle cx="928" cy="324" r="3" fill="#FF875C" fill-opacity="0.28"/>
<circle cx="601" cy="241" r="5" fill="#FF875C" fill-opacity="0.37"/>
<circle cx="189" cy="782" r="2.5" fill="#FFD56A" fill-opacity="0.25"/>
<circle cx="95" cy="561" r="3" fill="#FFD56A" fill-opacity="0.19"/>
<circle cx="412" cy="808" r="2" fill="white" fill-opacity="0.18"/>
<circle cx="866" cy="664" r="2" fill="#FF5A6E" fill-opacity="0.19"/>
<circle cx="705" cy="702" r="5" fill="white" fill-opacity="0.29"/>
<circle cx="476" cy="400" r="4" fill="#FF5A6E" fill-opacity="0.17"/>
<circle cx="506" cy="1400" r="4" fill="#FFD56A" fill-opacity="0.41"/>
<circle cx="683" cy="403" r="2.5" fill="white" fill-opacity="0.29"/>
<circle cx="864" cy="587" r="5" fill="#FF5A6E" fill-opacity="0.31"/>
<circle cx="379" cy="393" r="4" fill="white" fill-opacity="0.28"/>
<circle cx="794" cy="567" r="4" fill="#FF875C" fill-opacity="0.54"/>
<circle cx="736" cy="474" r="5" fill="#FFD56A" fill-opacity="0.49"/>
<circle cx="1032" cy="1197" r="3" fill="#FF5A6E" fill-opacity="0.50"/>
<circle cx="238" cy="837" r="4" fill="#FF5A6E" fill-opacity="0.26"/>
<circle cx="650" cy="677" r="2" fill="white" fill-opacity="0.23"/>
<circle cx="513" cy="1072" r="3" fill="#FF5A6E" fill-opacity="0.29"/>
<circle cx="82" cy="459" r="2.5" fill="#FFD56A" fill-opacity="0.44"/>
<circle cx="180" cy="524" r="5" fill="#FFD56A" fill-opacity="0.53"/>
<circle cx="192" cy="1193" r="5" fill="white" fill-opacity="0.35"/>
<circle cx="784" cy="1054" r="5" fill="white" fill-opacity="0.17"/>
<circle cx="1026" cy="1345" r="2" fill="white" fill-opacity="0.49"/>
<circle cx="1099" cy="1153" r="4" fill="#FF5A6E" fill-opacity="0.27"/></g>
  <g opacity="0.85">
      <g>
        <path d="M420 966 H788 L850 1098 H358 Z" fill="rgba(255,255,255,0.03)" stroke="url(#accent)" stroke-width="18"/>
        <path d="M452 764 H758" stroke="#FF5A6E" stroke-width="18" stroke-linecap="round"/>
        <path d="M528 616 C 566 560, 642 560, 680 616" fill="none" stroke="#FFD56A" stroke-width="15"/>
        <path d="M604 304 V676" stroke="url(#accent)" stroke-width="14"/>
        <path d="M568 362 L604 296 L640 362" fill="#FF875C"/>
        <path d="M892 432 L930 506 L1014 518 L952 580 L966 666 L892 628 L818 666 L832 580 L770 518 L854 506 Z" fill="#FF5A6E" fill-opacity="0.45"/>
        <circle cx="604" cy="764" r="24" fill="white" fill-opacity="0.85"/>
      </g></g>
  <g opacity="0.9">
    <rect x="84" y="92" width="220" height="34" rx="17" fill="rgba(255,255,255,0.05)" stroke="rgba(255,255,255,0.08)"/>
    <circle cx="114" cy="109" r="5" fill="#FF875C"/>
    <circle cx="136" cy="109" r="5" fill="#FF5A6E"/>
    <circle cx="158" cy="109" r="5" fill="#FFD56A"/>
    <text x="186" y="116" font-size="18" fill="rgba(255,255,255,0.72)" font-family="Inter, Arial, sans-serif" letter-spacing="1.2">Y-MAP PROFILE POSTER</text>
  </g>
  <g>
    <rect x="86" y="1284" width="1028" height="116" rx="26" fill="rgba(8,12,18,0.62)" stroke="rgba(255,255,255,0.08)"/>
    <path d="M118 1320 H1080" stroke="url(#accent)" stroke-width="2" stroke-opacity="0.7"/>
    <text x="122" y="1362" font-size="46" font-weight="800" fill="white" font-family="Inter, PingFang SC, Microsoft YaHei, Arial, sans-serif">重装破阵军</text>
    <text x="122" y="1394" font-size="20" letter-spacing="8" fill="rgba(255,255,255,0.55)" font-family="Inter, Arial, sans-serif">RDMP · YOUTH MISSION &amp; ATTITUDE PROFILE</text>
  </g>
  <path d="M 40 280 L 320 -20" stroke="rgba(255,255,255,0.06)" stroke-width="50"/>
</svg>