<svg xmlns="http://www.w3.org/2000/svg" width="1200" height="1500" viewBox="0 0 1200 1500" role="img" aria-label="笃定筑巢人">
  <defs>
    <linearGradient id="bg" x1="0" y1="0" x2="1" y2="1">
      <stop offset="0%" stop-color="#09101B"/>
      <stop offset="45%" stop-color="#111B2B"/>
      <stop offset="100%" stop-color="#090D14"/>
    </linearGradient>
    <radialGradient id="halo1" cx="26%" cy="22%" r="56%">
      <stop offset="0%" stop-color="#9DDB8A" stop-opacity="0.46"/>
      <stop offset="100%" stop-color="#9DDB8A" stop-opacity="0"/>
    </radialGradient>
    <radialGradient id="halo2" cx="76%" cy="74%" r="50%">
      <stop offset="0%" stop-color="#FFD48C" stop-opacity="0.32"/>
      <stop offset="100%" stop-color="#FFD48C" stop-opacity="0"/>
    </radialGradient>
    <linearGradient id="accent" x1="0" y1="0" x2="1" y2="1">
      <stop offset="0%" stop-color="#9DDB8A"/>
      <stop offset="55%" stop-color="#FFD48C"/>
      <stop offset="100%" stop-color="#FFF7DE"/>
    </linearGradient>
    <linearGradient id="shine" x1="0" y1="0" x2="1" y2="0">
      <stop offset="0%" stop-color="rgba(255,255,255,0)"/>
      <stop offset="50%" stop-color="rgba(255,255,255,0.16)"/>
      <stop offset="100%" stop-color="rgba(255,255,255,0)"/>
    </linearGradient>
    <filter id="blur30" x="-30%" y="-30%" width="160%" height="160%"><feGaussianBlur stdDeviation="30"/></filter>
    <filter id="blur18" x="-30%" y="-30%" width="160%" height="160%"><feGaussianBlur stdDeviation="18"/></filter>
  </defs>
  <rect width="1200" height="1500" rx="56" fill="url(#bg)"/>
  <rect x="28" y="28" width="1144" height="1444" rx="40" fill="none" stroke="rgba(255,255,255,0.12)"/>
  <rect x="54" y="54" width="1092" height="1392" rx="28" fill="none" stroke="rgba(255,255,255,0.06)"/>
  <circle cx="300" cy="260" r="340" fill="url(#halo1)" filter="url(#blur30)"/>
  <circle cx="890" cy="1080" r="320" fill="url(#halo2)" filter="url(#blur30)"/>
  <g><path d="M 80 180 C 260 140, 370 220, 560 180 S 880 140, 1120 200.0" fill="none" stroke="rgba(255,255,255,0.08)" stroke-width="1.4"/>
<path d="M 80 300 C 260 248, 370 352, 560 300 S 880 248, 1120 326.0" fill="none" stroke="rgba(255,255,255,0.08)" stroke-width="1.4"/>
<path d="M 80 430 C 260 366, 370 494, 560 430 S 880 366, 1120 462.0" fill="none" stroke="rgba(255,255,255,0.08)" stroke-width="1.4"/>
<path d="M 80 560 C 260 520, 370 600, 560 560 S 880 520, 1120 580.0" fill="none" stroke="rgba(255,255,255,0.08)" stroke-width="1.4"/>
<path d="M 80 700 C 260 648, 370 752, 560 700 S 880 648, 1120 726.0" fill="none" stroke="rgba(255,255,255,0.08)" stroke-width="1.4"/>
<path d="M 80 860 C 260 796, 370 924, 560 860 S 880 796, 1120 892.0" fill="none" stroke="rgba(255,255,255,0.08)" stroke-width="1.4"/>
<path d="M 80 1030 C 260 990, 370 1070, 560 1030 S 880 990, 1120 1050.0" fill="none" stroke="rgba(255,255,255,0.08)" stroke-width="1.4"/>
<path d="M 80 1180 C 260 1128, 370 1232, 560 1180 S 880 1128, 1120 1206.0" fill="none" stroke="rgba(255,255,255,0.08)" stroke-width="1.4"/>
<path d="M 160 120 C 210 360, 110 860, 180 1380" fill="none" stroke="rgba(255,255,255,0.035)" stroke-width="1"/>
<path d="M 320 120 C 370 360, 270 860, 340 1380" fill="none" stroke="rgba(255,255,255,0.035)" stroke-width="1"/>
<path d="M 480 120 C 530 360, 430 860, 500 1380" fill="none" stroke="rgba(255,255,255,0.035)" stroke-width="1"/>
<path d="M 640 120 C 690 360, 590 860, 660 1380" fill="none" stroke="rgba(255,255,255,0.035)" stroke-width="1"/>
<path d="M 800 120 C 850 360, 750 860, 820 1380" fill="none" stroke="rgba(255,255,255,0.035)" stroke-width="1"/>
<path d="M 960 120 C 1010 360, 910 860, 980 1380" fill="none" stroke="rgba(255,255,255,0.035)" stroke-width="1"/></g>
  <g opacity="0.06"><text x="72" y="520" font-size="240" font-weight="800" fill="white" font-family="Inter, Arial, sans-serif" letter-spacing="18">RDSC</text></g>
  <g><circle cx="809" cy="795" r="2" fill="white" fill-opacity="0.35"/>
<circle cx="419" cy="421" r="2" fill="#FFF7DE" fill-opacity="0.32"/>
<circle cx="363" cy="1383" r="2.5" fill="#9DDB8A" fill-opacity="0.50"/>
<circle cx="214" cy="697" r="3" fill="#9DDB8A" fill-opacity="0.50"/>
<circle cx="642" cy="1268" r="3" fill="#9DDB8A" fill-opacity="0.16"/>
<circle cx="496" cy="860" r="3" fill="#9DDB8A" fill-opacity="0.52"/>
<circle cx="434" cy="187" r="4" fill="#FFF7DE" fill-opacity="0.33"/>
<circle cx="482" cy="1403" r="4" fill="white" fill-opacity="0.25"/>
<circle cx="465" cy="662" r="2.5" fill="#FFF7DE" fill-opacity="0.47"/>
<circle cx="1010" cy="967" r="2.5" fill="white" fill-opacity="0.30"/>
<circle cx="390" cy="273" r="2" fill="white" fill-opacity="0.26"/>
<circle cx="507" cy="1308" r="2" fill="#FFF7DE" fill-opacity="0.25"/>
<circle cx="323" cy="1131" r="5" fill="#FFF7DE" fill-opacity="0.18"/>
<circle cx="138" cy="450" r="2.5" fill="#FFF7DE" fill-opacity="0.52"/>
<circle cx="431" cy="1219" r="3" fill="white" fill-opacity="0.39"/>
<circle cx="259" cy="1066" r="4" fill="white" fill-opacity="0.50"/>
<circle cx="119" cy="682" r="2.5" fill="#9DDB8A" fill-opacity="0.22"/>
<circle cx="264" cy="475" r="2.5" fill="#9DDB8A" fill-opacity="0.17"/>
<circle cx="1084" cy="1036" r="3" fill="white" fill-opacity="0.49"/>
<circle cx="996" cy="919" r="3" fill="white" fill-opacity="0.48"/>
<circle cx="679" cy="1121" r="2.5" fill="white" fill-opacity="0.53"/>
<circle cx="754" cy="783" r="3" fill="#FFD48C" fill-opacity="0.21"/>
<circle cx="681" cy="1276" r="2" fill="#FFD48C" fill-opacity="0.42"/>
<circle cx="451" cy="794" r="2.5" fill="#FFF7DE" fill-opacity="0.46"/>
<circle cx="770" cy="1352" r="3" fill="#FFD48C" fill-opacity="0.23"/>
<circle cx="730" cy="786" r="2" fill="#FFF7DE" fill-opacity="0.53"/>
<circle cx="614" cy="946" r="3" fill="#FFD48C" fill-opacity="0.37"/>
<circle cx="476" cy="494" r="2.5" fill="#9DDB8A" fill-opacity="0.52"/>
<circle cx="292" cy="136" r="2" fill="white" fill-opacity="0.21"/>
<circle cx="183" cy="343" r="5" fill="#FFD48C" fill-opacity="0.19"/>
<circle cx="644" cy="846" r="3" fill="#FFF7DE" fill-opacity="0.32"/>
<circle cx="205" cy="305" r="4" fill="white" fill-opacity="0.30"/>
<circle cx="758" cy="325" r="4" fill="#FFF7DE" fill-opacity="0.19"/>
<circle cx="277" cy="503" r="2.5" fill="#9DDB8A" fill-opacity="0.20"/></g>
  <g opacity="0.85">
      <g>
        <path d="M332 948 C 428 850, 514 800, 604 800 C 694 800, 780 850, 876 948" fill="none" stroke="url(#accent)" stroke-width="16"/>
        <path d="M386 1008 C 466 928, 534 894, 604 894 C 674 894, 742 928, 822 1008" fill="none" stroke="#FFD48C" stroke-width="12"/>
        <path d="M456 1110 L604 918 L752 1110 Z" fill="rgba(255,255,255,0.03)" stroke="#FFF7DE" stroke-width="16"/>
        <rect x="558" y="1026" width="92" height="130" rx="14" fill="none" stroke="#FFF7DE" stroke-width="10"/>
        <path d="M470 1180 H738" stroke="rgba(255,255,255,0.16)" stroke-width="5"/>
        <circle cx="604" cy="794" r="22" fill="white" fill-opacity="0.85"/>
      </g></g>
  <g opacity="0.9">
    <rect x="84" y="92" width="220" height="34" rx="17" fill="rgba(255,255,255,0.05)" stroke="rgba(255,255,255,0.08)"/>
    <circle cx="114" cy="109" r="5" fill="#9DDB8A"/>
    <circle cx="136" cy="109" r="5" fill="#FFD48C"/>
    <circle cx="158" cy="109" r="5" fill="#FFF7DE"/>
    <text x="186" y="116" font-size="18" fill="rgba(255,255,255,0.72)" font-family="Inter, Arial, sans-serif" letter-spacing="1.2">Y-MAP PROFILE POSTER</text>
  </g>
  <g>
    <rect x="86" y="1284" width="1028" height="116" rx="26" fill="rgba(8,12,18,0.62)" stroke="rgba(255,255,255,0.08)"/>
    <path d="M118 1320 H1080" stroke="url(#accent)" stroke-width="2" stroke-opacity="0.7"/>
    <text x="122" y="1362" font-size="46" font-weight="800" fill="white" font-family="Inter, PingFang SC, Microsoft YaHei, Arial, sans-serif">笃定筑巢人</text>
    <text x="122" y="1394" font-size="20" letter-spacing="8" fill="rgba(255,255,255,0.55)" font-family="Inter, Arial, sans-serif">RDSC · YOUTH MISSION &amp; ATTITUDE PROFILE</text>
  </g>
  <path d="M 40 280 L 320 -20" stroke="rgba(255,255,255,0.06)" stroke-width="50"/>
</svg>