<svg xmlns="http://www.w3.org/2000/svg" width="1200" height="1500" viewBox="0 0 1200 1500" role="img" aria-label="硬核生活家">
  <defs>
    <linearGradient id="bg" x1="0" y1="0" x2="1" y2="1">
      <stop offset="0%" stop-color="#09101B"/>
      <stop offset="45%" stop-color="#111B2B"/>
      <stop offset="100%" stop-color="#090D14"/>
    </linearGradient>
    <radialGradient id="halo1" cx="26%" cy="22%" r="56%">
      <stop offset="0%" stop-color="#FFB367" stop-opacity="0.46"/>
      <stop offset="100%" stop-color="#FFB367" stop-opacity="0"/>
    </radialGradient>
    <radialGradient id="halo2" cx="76%" cy="74%" r="50%">
      <stop offset="0%" stop-color="#FFD56C" stop-opacity="0.32"/>
      <stop offset="100%" stop-color="#FFD56C" stop-opacity="0"/>
    </radialGradient>
    <linearGradient id="accent" x1="0" y1="0" x2="1" y2="1">
      <stop offset="0%" stop-color="#FFB367"/>
      <stop offset="55%" stop-color="#FFD56C"/>
      <stop offset="100%" stop-color="#FFF7D6"/>
    </linearGradient>
    <linearGradient id="shine" x1="0" y1="0" x2="1" y2="0">
      <stop offset="0%" stop-color="rgba(255,255,255,0)"/>
      <stop offset="50%" stop-color="rgba(255,255,255,0.16)"/>
      <stop offset="100%" stop-color="rgba(255,255,255,0)"/>
    </linearGradient>
    <filter id="blur30" x="-30%" y="-30%" width="160%" height="160%"><feGaussianBlur stdDeviation="30"/></filter>
    <filter id="blur18" x="-30%" y="-30%" width="160%" height="160%"><feGaussianBlur stdDeviation="18"/></filter>
  </defs>
  <rect width="1200" height="1500" rx="56" fill="url(#bg)"/>
  <rect x="28" y="28" width="1144" height="1444" rx="40" fill="none" stroke="rgba(255,255,255,0.12)"/>
  <rect x="54" y="54" width="1092" height="1392" rx="28" fill="none" stroke="rgba(255,255,255,0.06)"/>
  <circle cx="300" cy="260" r="340" fill="url(#halo1)" filter="url(#blur30)"/>
  <circle cx="890" cy="1080" r="320" fill="url(#halo2)" filter="url(#blur30)"/>
  <g><path d="M 80 180 C 260 140, 370 220, 560 180 S 880 140, 1120 200.0" fill="none" stroke="rgba(255,255,255,0.08)" stroke-width="1.4"/>
<path d="M 80 300 C 260 248, 370 352, 560 300 S 880 248, 1120 326.0" fill="none" stroke="rgba(255,255,255,0.08)" stroke-width="1.4"/>
<path d="M 80 430 C 260 366, 370 494, 560 430 S 880 366, 1120 462.0" fill="none" stroke="rgba(255,255,255,0.08)" stroke-width="1.4"/>
<path d="M 80 560 C 260 520, 370 600, 560 560 S 880 520, 1120 580.0" fill="none" stroke="rgba(255,255,255,0.08)" stroke-width="1.4"/>
<path d="M 80 700 C 260 648, 370 752, 560 700 S 880 648, 1120 726.0" fill="none" stroke="rgba(255,255,255,0.08)" stroke-width="1.4"/>
<path d="M 80 860 C 260 796, 370 924, 560 860 S 880 796, 1120 892.0" fill="none" stroke="rgba(255,255,255,0.08)" stroke-width="1.4"/>
<path d="M 80 1030 C 260 990, 370 1070, 560 1030 S 880 990, 1120 1050.0" fill="none" stroke="rgba(255,255,255,0.08)" stroke-width="1.4"/>
<path d="M 80 1180 C 260 1128, 370 1232, 560 1180 S 880 1128, 1120 1206.0" fill="none" stroke="rgba(255,255,255,0.08)" stroke-width="1.4"/>
<path d="M 160 120 C 210 360, 110 860, 180 1380" fill="none" stroke="rgba(255,255,255,0.035)" stroke-width="1"/>
<path d="M 320 120 C 370 360, 270 860, 340 1380" fill="none" stroke="rgba(255,255,255,0.035)" stroke-width="1"/>
<path d="M 480 120 C 530 360, 430 860, 500 1380" fill="none" stroke="rgba(255,255,255,0.035)" stroke-width="1"/>
<path d="M 640 120 C 690 360, 590 860, 660 1380" fill="none" stroke="rgba(255,255,255,0.035)" stroke-width="1"/>
<path d="M 800 120 C 850 360, 750 860, 820 1380" fill="none" stroke="rgba(255,255,255,0.035)" stroke-width="1"/>
<path d="M 960 120 C 1010 360, 910 860, 980 1380" fill="none" stroke="rgba(255,255,255,0.035)" stroke-width="1"/></g>
  <g opacity="0.06"><text x="72" y="520" font-size="240" font-weight="800" fill="white" font-family="Inter, Arial, sans-serif" letter-spacing="18">RDSP</text></g>
  <g><circle cx="414" cy="963" r="4" fill="#FFD56C" fill-opacity="0.50"/>
<circle cx="367" cy="198" r="3" fill="#FFD56C" fill-opacity="0.28"/>
<circle cx="996" cy="914" r="4" fill="#FFD56C" fill-opacity="0.38"/>
<circle cx="789" cy="545" r="2" fill="#FFD56C" fill-opacity="0.35"/>
<circle cx="939" cy="538" r="3" fill="#FFB367" fill-opacity="0.50"/>
<circle cx="667" cy="1101" r="4" fill="#FFB367" fill-opacity="0.15"/>
<circle cx="670" cy="1096" r="2.5" fill="#FFD56C" fill-opacity="0.22"/>
<circle cx="542" cy="1046" r="2" fill="#FFF7D6" fill-opacity="0.55"/>
<circle cx="891" cy="189" r="4" fill="#FFB367" fill-opacity="0.46"/>
<circle cx="429" cy="1277" r="4" fill="#FFB367" fill-opacity="0.18"/>
<circle cx="1080" cy="409" r="2.5" fill="white" fill-opacity="0.45"/>
<circle cx="1062" cy="1118" r="2" fill="#FFB367" fill-opacity="0.26"/>
<circle cx="463" cy="913" r="2" fill="#FFB367" fill-opacity="0.22"/>
<circle cx="467" cy="984" r="5" fill="#FFD56C" fill-opacity="0.40"/>
<circle cx="317" cy="1251" r="5" fill="#FFF7D6" fill-opacity="0.38"/>
<circle cx="812" cy="1191" r="5" fill="#FFD56C" fill-opacity="0.31"/>
<circle cx="582" cy="107" r="3" fill="white" fill-opacity="0.22"/>
<circle cx="1070" cy="695" r="5" fill="white" fill-opacity="0.27"/>
<circle cx="888" cy="257" r="3" fill="#FFF7D6" fill-opacity="0.25"/>
<circle cx="261" cy="650" r="2.5" fill="#FFF7D6" fill-opacity="0.55"/>
<circle cx="86" cy="261" r="3" fill="#FFB367" fill-opacity="0.33"/>
<circle cx="714" cy="1323" r="2.5" fill="#FFB367" fill-opacity="0.25"/>
<circle cx="595" cy="96" r="2" fill="#FFB367" fill-opacity="0.47"/>
<circle cx="773" cy="191" r="4" fill="#FFD56C" fill-opacity="0.42"/>
<circle cx="264" cy="147" r="4" fill="white" fill-opacity="0.39"/>
<circle cx="584" cy="545" r="2" fill="white" fill-opacity="0.19"/>
<circle cx="538" cy="242" r="2" fill="white" fill-opacity="0.25"/>
<circle cx="96" cy="1394" r="2.5" fill="#FFF7D6" fill-opacity="0.22"/>
<circle cx="192" cy="592" r="4" fill="#FFD56C" fill-opacity="0.51"/>
<circle cx="434" cy="1383" r="2" fill="white" fill-opacity="0.36"/>
<circle cx="491" cy="650" r="2" fill="#FFF7D6" fill-opacity="0.34"/>
<circle cx="778" cy="490" r="4" fill="#FFB367" fill-opacity="0.34"/>
<circle cx="709" cy="334" r="2" fill="#FFB367" fill-opacity="0.47"/>
<circle cx="1062" cy="991" r="4" fill="white" fill-opacity="0.25"/></g>
  <g opacity="0.85">
      <g>
        <path d="M338 864 L604 528 L870 864 V1098 H338 Z" fill="rgba(255,255,255,0.03)" stroke="url(#accent)" stroke-width="18"/>
        <rect x="548" y="916" width="112" height="182" rx="16" fill="none" stroke="#FFD56C" stroke-width="12"/>
        <path d="M314 424 L456 566" stroke="#FFF7D6" stroke-width="18" stroke-linecap="round"/>
        <path d="M392 392 L496 496" stroke="#FFF7D6" stroke-width="8" stroke-linecap="round"/>
        <path d="M444 764 H762" stroke="rgba(255,255,255,0.16)" stroke-width="4"/>
        <circle cx="604" cy="764" r="22" fill="white" fill-opacity="0.86"/>
      </g></g>
  <g opacity="0.9">
    <rect x="84" y="92" width="220" height="34" rx="17" fill="rgba(255,255,255,0.05)" stroke="rgba(255,255,255,0.08)"/>
    <circle cx="114" cy="109" r="5" fill="#FFB367"/>
    <circle cx="136" cy="109" r="5" fill="#FFD56C"/>
    <circle cx="158" cy="109" r="5" fill="#FFF7D6"/>
    <text x="186" y="116" font-size="18" fill="rgba(255,255,255,0.72)" font-family="Inter, Arial, sans-serif" letter-spacing="1.2">Y-MAP PROFILE POSTER</text>
  </g>
  <g>
    <rect x="86" y="1284" width="1028" height="116" rx="26" fill="rgba(8,12,18,0.62)" stroke="rgba(255,255,255,0.08)"/>
    <path d="M118 1320 H1080" stroke="url(#accent)" stroke-width="2" stroke-opacity="0.7"/>
    <text x="122" y="1362" font-size="46" font-weight="800" fill="white" font-family="Inter, PingFang SC, Microsoft YaHei, Arial, sans-serif">硬核生活家</text>
    <text x="122" y="1394" font-size="20" letter-spacing="8" fill="rgba(255,255,255,0.55)" font-family="Inter, Arial, sans-serif">RDSP · YOUTH MISSION &amp; ATTITUDE PROFILE</text>
  </g>
  <path d="M 40 280 L 320 -20" stroke="rgba(255,255,255,0.06)" stroke-width="50"/>
</svg>